<?xml version="1.0" encoding="UTF-8"?>
<!-- The mark (2026-10-09). The file keeps the name monogram-tnc.svg from when it
     carried T, N and C. Traced from the user's picture of a red bird and a
     red border on a charcoal square ("Use the first image I sent. Turn that
     into an svg"): the red's edges followed where the colour is half way
     from the charcoal to the red, simplified and drawn through as curves,
     so the border keeps its hand-drawn wobble and the bird its notches,
     the slit in its beak and the fork in its tail. #bird is the border and
     the bird, one path; #ground the square under them. Charcoal on white
     here; on the site (build.js) the bird and the border take the page's
     ink and the ground the page's ground - a dark bird and border on the
     light side, white on the dark ("Have white bird and white border on
     dark and a dark bird and dark border on light"). -->
<svg xmlns="http://www.w3.org/2000/svg" viewBox="0 0 1300 1296.8" width="1300" height="1296.8" role="img" aria-label="The New Critic">
  <rect id="ground" x="0" y="0" width="1300" height="1296.8" fill="#FFFFFF"/>
  <path id="bird" fill="#121417" fill-rule="evenodd" d="M15.1 0.0C51.2 -1.2 15.5 -0.7 221.5 -0.8C427.6 -0.9 1077.2 -0.6 1251.5 -0.5C1425.8 -0.4 1262.1 -1.4 1267.2 0.0C1272.3 1.4 1278.9 4.3 1282.2 8.1C1285.6 11.9 1286.2 18.1 1287.4 22.6C1288.5 27.2 1288.7 31.0 1289.0 35.6C1289.3 40.2 1288.8 44.5 1289.2 50.1C1289.6 55.8 1291.2 55.8 1291.6 69.5C1292.1 83.3 1291.2 120.2 1291.7 132.6C1292.2 145.0 1294.1 140.1 1294.6 143.9C1295.1 147.7 1294.5 152.0 1294.8 155.2C1295.0 158.5 1296.7 153.3 1295.9 163.3C1295.2 173.3 1291.2 195.6 1290.3 215.0C1289.4 234.5 1290.1 267.6 1290.3 279.7C1290.5 291.9 1291.4 284.8 1291.6 287.8C1291.9 290.8 1291.3 292.7 1291.8 297.5C1292.3 302.4 1294.5 312.3 1294.8 316.9C1295.1 321.5 1293.8 321.2 1293.5 325.0C1293.3 328.8 1293.9 333.4 1293.3 339.6C1292.8 345.8 1290.8 350.3 1290.3 362.2C1289.8 374.0 1290.0 401.3 1290.2 410.7C1290.4 420.1 1291.4 414.2 1291.6 418.8C1291.9 423.4 1291.9 433.3 1291.7 438.2C1291.5 443.0 1290.6 444.4 1290.4 447.9C1290.2 451.4 1290.6 455.4 1290.4 459.2C1290.2 463.0 1289.4 458.4 1289.2 470.5C1289.0 482.6 1288.8 516.1 1289.2 532.0C1289.6 547.9 1291.0 558.6 1291.8 565.9C1292.7 573.2 1293.8 571.0 1294.4 575.6C1295.0 580.2 1295.5 588.0 1295.6 593.4C1295.7 598.8 1295.2 604.2 1294.8 608.0C1294.5 611.7 1293.7 612.0 1293.4 616.0C1293.2 620.1 1293.7 626.0 1293.2 632.2C1292.6 638.4 1290.8 642.7 1290.3 653.2C1289.8 663.7 1290.0 686.7 1290.2 695.3C1290.4 703.9 1291.4 699.6 1291.6 705.0C1291.9 710.4 1291.9 721.7 1291.7 727.6C1291.5 733.5 1290.5 732.2 1290.3 740.5C1290.1 748.9 1289.8 766.4 1290.3 777.7C1290.8 789.1 1293.4 799.8 1293.4 808.5C1293.5 817.1 1291.0 823.5 1290.5 829.5C1290.0 835.4 1290.6 839.7 1290.4 844.0C1290.2 848.3 1289.4 845.6 1289.2 855.3C1289.1 865.0 1289.5 893.1 1289.4 902.2C1289.2 911.4 1288.0 902.5 1288.2 910.3C1288.3 918.1 1289.8 941.6 1290.4 949.1C1291.0 956.7 1291.4 952.1 1291.6 955.6C1291.8 959.1 1291.1 964.2 1291.6 970.1C1292.1 976.1 1294.2 983.9 1294.8 991.2C1295.3 998.4 1295.0 1009.0 1294.8 1013.8C1294.6 1018.7 1293.8 1016.5 1293.5 1020.3C1293.3 1024.0 1293.5 1032.4 1293.2 1036.4C1292.9 1040.5 1292.4 1036.4 1291.7 1044.5C1291.0 1052.6 1289.3 1076.6 1289.2 1085.0C1289.0 1093.3 1289.9 1091.7 1290.8 1094.7C1291.7 1097.6 1293.7 1100.8 1294.3 1102.7C1295.0 1104.6 1294.9 1104.1 1294.8 1106.0C1294.6 1107.9 1293.7 1110.6 1293.4 1114.1C1293.2 1117.6 1292.9 1123.2 1293.2 1127.0C1293.4 1130.8 1294.5 1133.7 1294.8 1136.7C1295.0 1139.7 1294.5 1141.8 1294.7 1144.8C1294.9 1147.7 1296.2 1149.4 1296.0 1154.5C1295.8 1159.6 1293.9 1169.8 1293.4 1175.5C1293.0 1181.2 1293.8 1183.0 1293.3 1188.4C1292.8 1193.8 1291.0 1195.7 1290.5 1207.8C1289.9 1220.0 1290.7 1250.4 1290.1 1261.2C1289.6 1272.0 1289.7 1268.1 1287.3 1272.5C1284.9 1276.9 1278.7 1284.7 1275.7 1287.8C1272.7 1290.9 1272.8 1290.0 1269.3 1291.1C1265.8 1292.2 1259.8 1293.5 1254.7 1294.3C1249.6 1295.0 1246.1 1295.4 1238.6 1295.5C1231.0 1295.7 1216.7 1295.7 1209.5 1295.1C1202.2 1294.6 1200.0 1293.0 1194.9 1292.3C1189.8 1291.6 1193.3 1290.5 1178.7 1290.8C1164.2 1291.0 1126.2 1294.1 1107.6 1293.8C1089.0 1293.6 1077.4 1290.0 1067.2 1289.2C1056.9 1288.5 1051.3 1289.4 1046.1 1289.2C1041.0 1289.0 1041.3 1288.1 1036.4 1288.1C1031.6 1288.1 1022.2 1288.8 1017.0 1289.2C1011.9 1289.7 1014.3 1290.4 1005.7 1290.8C997.1 1291.3 974.7 1291.6 965.3 1291.9C955.9 1292.3 953.9 1292.5 949.1 1293.0C944.4 1293.6 942.1 1294.7 936.7 1295.1C931.3 1295.6 925.8 1295.9 916.8 1295.8C907.8 1295.7 891.2 1295.3 882.8 1294.7C874.5 1294.0 880.4 1292.4 866.7 1291.9C852.9 1291.4 816.0 1292.0 800.4 1291.9C784.7 1291.7 782.6 1290.6 772.9 1290.8C763.2 1291.0 756.2 1292.5 742.2 1292.9C728.2 1293.3 699.9 1293.2 688.8 1293.0C677.8 1292.8 682.9 1292.1 675.9 1291.9C668.9 1291.7 656.7 1292.2 646.8 1291.8C636.8 1291.3 623.3 1289.3 616.0 1289.2C608.8 1289.0 609.0 1290.6 603.1 1290.9C597.2 1291.2 590.7 1290.5 580.5 1290.9C570.2 1291.2 555.1 1292.6 541.7 1292.9C528.2 1293.3 512.8 1293.4 499.6 1293.0C486.4 1292.6 472.7 1291.2 462.4 1290.8C452.2 1290.4 444.4 1290.6 438.2 1290.8C432.0 1291.0 439.5 1291.7 425.2 1291.9C411.0 1292.0 366.8 1291.7 352.5 1291.9C338.2 1292.0 349.5 1292.8 339.6 1293.0C329.6 1293.2 306.7 1293.4 292.7 1293.0C278.6 1292.6 263.6 1291.4 255.5 1290.7C247.4 1290.0 247.7 1289.3 244.2 1289.1C240.7 1288.8 240.7 1288.8 234.5 1289.2C228.3 1289.7 228.3 1291.4 207.0 1291.8C185.7 1292.3 125.6 1291.7 106.7 1291.9C87.9 1292.0 99.7 1292.8 93.8 1293.0C87.9 1293.2 76.5 1292.8 71.1 1293.1C65.8 1293.4 67.1 1294.3 61.4 1294.7C55.8 1295.1 42.4 1295.4 37.2 1295.5C31.9 1295.6 32.9 1295.7 29.9 1295.1C26.9 1294.6 22.0 1293.0 19.4 1291.9C16.8 1290.9 17.1 1291.0 14.6 1288.9C12.0 1286.7 6.7 1282.0 4.3 1279.0C1.9 1276.0 0.8 1275.7 0.0 1270.9C-0.8 1266.0 -0.7 1266.9 -0.6 1249.9C-0.5 1232.9 0.3 1183.6 0.7 1169.0C1.2 1154.5 1.9 1166.9 2.1 1162.6C2.4 1158.3 1.9 1148.3 2.2 1143.2C2.4 1138.0 3.4 1137.2 3.6 1131.8C3.9 1126.5 4.1 1118.9 3.5 1110.8C3.0 1102.7 1.1 1114.3 0.4 1083.3C-0.3 1052.3 -0.6 984.2 -0.7 924.9C-0.8 865.6 -0.4 762.4 -0.2 727.6C-0.0 692.8 0.6 720.9 0.6 716.3C0.6 711.7 -0.0 718.2 -0.2 700.1C-0.5 682.1 -0.6 631.1 -0.6 608.0C-0.6 584.8 -0.4 570.2 -0.2 561.1C-0.0 551.9 0.6 561.6 0.6 553.0C0.5 544.4 -0.3 544.9 -0.5 509.3C-0.7 473.8 -0.6 375.7 -0.6 339.6C-0.6 303.4 -0.4 301.8 -0.2 292.7C-0.0 283.5 0.7 304.0 0.6 284.6C0.5 265.2 -0.5 217.2 -0.7 176.2C-0.9 135.3 -0.7 65.4 -0.6 38.8C-0.4 12.2 -0.9 22.3 0.0 16.9C0.9 11.5 2.3 9.3 4.9 6.5C7.4 3.7 -21.0 1.2 15.1 0.0ZM344.4 12.7C342.0 13.3 341.2 14.3 334.7 14.8C328.2 15.3 312.3 15.4 305.6 15.7C298.9 16.0 299.7 16.7 294.3 16.9C288.9 17.1 278.9 16.6 273.3 16.9C267.6 17.2 267.9 18.9 260.3 18.7C252.8 18.5 237.1 16.1 228.0 15.6C218.8 15.1 211.0 15.5 205.3 15.7C199.7 15.9 211.3 16.9 194.0 16.9C176.8 16.9 119.4 15.6 101.9 15.6C84.3 15.6 93.0 16.6 88.9 16.8C84.9 17.1 81.4 16.5 77.6 16.8C73.8 17.2 72.8 18.4 66.3 18.7C59.8 19.0 44.5 18.4 38.8 18.6C33.1 18.9 34.0 19.4 32.3 20.2C30.7 21.0 30.1 22.1 29.1 23.5C28.1 25.0 26.4 27.1 26.4 29.1C26.5 31.1 28.7 33.7 29.4 35.6C30.0 37.5 29.7 32.1 30.1 40.4C30.5 48.8 31.3 76.8 31.9 85.7C32.4 94.6 32.4 90.5 33.6 93.8C34.8 97.0 37.8 101.1 39.0 105.1C40.3 109.1 40.8 114.3 41.2 118.0C41.6 121.8 41.7 124.2 41.2 127.7C40.8 131.2 39.0 135.3 38.5 139.1C38.0 142.8 38.6 146.3 38.2 150.4C37.7 154.4 35.9 159.5 35.7 163.3C35.5 167.1 36.8 169.8 37.0 173.0C37.2 176.2 36.7 180.0 37.1 182.7C37.5 185.4 38.7 188.0 39.2 189.2C39.8 190.4 39.7 190.1 40.4 189.9C41.1 189.6 42.2 189.5 43.3 187.6C44.4 185.7 45.8 182.0 46.9 178.5C48.0 175.0 48.8 169.6 49.7 166.5C50.6 163.5 51.5 163.8 52.3 160.1C53.2 156.3 54.4 149.3 55.1 143.9C55.7 138.5 56.0 131.5 56.0 127.7C56.0 124.0 55.2 127.5 55.1 121.3C54.9 115.1 54.6 97.6 55.2 90.5C55.7 83.5 56.8 82.7 58.1 79.2C59.4 75.7 61.5 71.7 62.8 69.5C64.0 67.4 64.4 66.9 65.6 66.3C66.7 65.7 68.1 65.1 69.5 65.7C71.0 66.3 73.2 68.4 74.4 69.9C75.5 71.3 75.7 71.2 76.5 74.4C77.3 77.6 78.2 85.4 79.0 88.9C79.9 92.4 80.6 90.5 81.6 95.4C82.5 100.2 83.9 112.9 84.8 118.0C85.7 123.2 86.1 118.3 87.0 126.1C87.8 133.9 89.0 155.5 89.9 164.9C90.9 174.4 92.1 176.2 92.8 182.7C93.5 189.2 93.6 198.1 94.1 203.7C94.6 209.4 94.8 211.3 95.9 216.7C97.0 222.1 99.9 231.8 100.8 236.1C101.7 240.4 101.0 240.7 101.5 242.5C101.9 244.4 102.5 243.6 103.5 247.4C104.4 251.2 106.3 261.4 107.3 265.2C108.2 268.9 108.2 264.4 109.4 270.0C110.5 275.7 112.9 290.0 113.9 299.1C114.9 308.3 114.7 319.6 115.5 325.0C116.3 330.4 117.5 330.1 118.7 331.5C120.0 332.9 121.9 333.1 122.9 333.3C123.8 333.6 123.6 333.7 124.5 333.1C125.4 332.5 126.4 332.5 128.2 329.9C130.1 327.2 133.7 319.7 135.5 316.9C137.3 314.2 137.9 314.1 139.1 313.3C140.2 312.5 141.2 312.4 142.3 312.2C143.4 312.1 144.6 312.1 145.5 312.4C146.5 312.6 146.5 312.1 147.9 313.7C149.2 315.2 152.3 318.5 153.6 321.8C155.0 325.0 155.0 329.9 156.0 333.1C157.0 336.3 158.6 337.9 159.7 341.2C160.8 344.4 162.0 345.2 162.5 352.5C163.0 359.8 161.8 373.2 162.7 384.8C163.7 396.4 166.9 414.7 168.3 422.0C169.6 429.3 169.7 424.7 170.7 428.5C171.6 432.3 172.9 440.9 173.9 444.7C174.9 448.4 175.9 448.2 176.6 451.1C177.2 454.0 176.9 457.5 177.9 462.0C178.9 466.6 181.0 474.7 182.6 478.6C184.2 482.5 185.9 483.4 187.6 485.3C189.2 487.2 190.2 488.7 192.7 489.9C195.1 491.2 199.7 492.5 202.1 492.8C204.5 493.1 205.7 492.3 207.0 491.8C208.2 491.3 208.2 492.7 209.8 489.9C211.5 487.2 215.2 477.9 216.9 475.4C218.6 472.8 218.6 474.6 219.9 474.6C221.2 474.6 222.9 474.5 224.8 475.5C226.6 476.4 228.5 477.6 231.2 480.0C233.9 482.4 237.0 486.2 240.9 489.7C244.9 493.2 251.2 498.8 254.8 501.2C258.4 503.7 259.7 502.7 262.5 504.5C265.3 506.2 266.7 508.7 271.6 511.7C276.6 514.6 287.9 519.1 292.3 522.3C296.8 525.4 297.2 528.5 298.4 530.3C299.6 532.2 299.4 531.2 299.4 533.6C299.3 536.0 299.2 540.3 298.1 544.9C297.1 549.5 294.3 556.2 293.1 561.1C291.9 565.9 291.3 571.3 291.0 574.0C290.8 576.7 291.3 576.4 291.9 577.2C292.4 578.1 293.1 578.9 294.3 579.3C295.5 579.7 297.5 580.1 299.1 579.8C300.7 579.5 301.4 580.6 303.8 577.2C306.1 573.8 311.1 563.0 313.3 559.5C315.5 555.9 315.3 557.1 316.9 556.0C318.6 554.9 321.0 553.5 323.1 553.0C325.3 552.5 327.4 552.4 329.9 552.9C332.3 553.5 336.0 555.1 337.9 556.2C339.9 557.3 340.6 558.1 341.7 559.5C342.9 560.8 344.2 562.4 344.9 564.3C345.6 566.2 346.0 567.8 345.8 570.8C345.5 573.7 343.9 578.6 343.4 582.1C342.9 585.6 342.9 589.4 343.0 591.8C343.1 594.2 343.7 595.5 344.2 596.6C344.7 597.8 345.2 598.4 346.0 598.8C346.9 599.3 348.2 599.4 349.3 599.4C350.3 599.3 350.2 599.7 352.5 598.5C354.8 597.2 359.0 593.8 363.0 591.8C367.0 589.8 373.4 587.6 376.7 586.7C380.1 585.7 381.1 586.2 383.2 586.2C385.4 586.3 388.1 586.7 389.7 587.0C391.3 587.4 391.4 587.5 392.9 588.6C394.4 589.6 397.1 591.5 398.6 593.4C400.1 595.3 401.2 598.0 401.8 599.9C402.4 601.8 402.6 603.1 402.2 604.7C401.9 606.3 400.4 607.7 399.8 609.6C399.1 611.5 399.9 612.5 398.5 616.0C397.0 619.5 392.7 626.6 391.2 630.6C389.7 634.6 389.7 638.1 389.6 640.3C389.4 642.5 389.8 642.7 390.4 643.5C390.9 644.3 391.7 645.0 392.9 645.1C394.1 645.3 395.4 645.8 397.8 644.1C400.1 642.5 405.1 637.2 407.2 635.4C409.4 633.7 409.3 634.2 410.7 633.9C412.1 633.7 413.9 633.4 415.5 633.9C417.2 634.4 418.4 634.7 420.4 636.8C422.4 639.0 423.3 639.2 427.5 646.8C431.7 654.3 442.3 675.6 445.7 682.3C449.0 689.1 446.8 684.5 447.4 687.2C448.0 689.9 448.9 695.8 449.2 698.5C449.5 701.2 449.7 700.9 448.9 703.4C448.1 705.8 446.4 710.1 444.4 713.1C442.5 716.0 439.4 718.2 437.4 721.1C435.3 724.1 434.0 728.2 432.1 730.8C430.3 733.5 428.3 734.1 426.2 737.3C424.1 740.5 420.6 747.8 419.4 750.2C418.3 752.7 419.1 751.3 419.3 751.9C419.4 752.4 419.9 753.2 420.4 753.6C420.9 754.1 421.2 754.5 422.0 754.6C422.8 754.8 420.9 755.9 425.2 754.7C429.6 753.6 441.4 749.2 447.9 747.6C454.4 746.1 456.5 746.0 464.1 745.2C471.6 744.5 485.6 744.6 493.2 743.2C500.7 741.7 503.5 739.3 509.3 736.4C515.1 733.6 522.4 729.6 527.9 726.0C533.4 722.4 536.3 719.8 542.3 714.7C548.4 709.6 558.1 699.9 564.2 695.3C570.2 690.7 575.2 689.6 578.7 687.2C582.3 684.8 583.3 682.6 585.7 680.7C588.0 678.8 589.5 678.6 592.9 675.9C596.4 673.2 602.0 668.3 606.1 664.6C610.2 660.8 614.1 657.5 617.7 653.2C621.2 648.9 624.7 642.5 627.6 638.7C630.4 634.9 632.2 633.8 634.6 630.6C637.0 627.4 637.6 624.7 642.0 619.3C646.4 613.9 656.5 603.6 661.0 598.3C665.6 593.0 665.6 591.8 669.4 587.4C673.2 583.0 679.8 577.1 684.0 571.9C688.1 566.7 686.0 566.4 694.5 556.2C703.0 546.1 726.2 521.4 734.9 510.9C743.7 500.5 743.3 498.1 747.0 493.6C750.7 489.0 754.8 486.2 757.1 483.5C759.3 480.7 758.4 480.2 760.7 477.0C763.0 473.8 768.1 467.8 770.7 464.1C773.4 460.3 774.4 457.3 776.6 454.4C778.9 451.4 782.1 449.2 784.2 446.3C786.3 443.3 787.4 439.5 789.4 436.6C791.4 433.6 794.2 431.6 796.3 428.5C798.4 425.4 800.1 420.7 802.0 418.0C803.8 415.4 805.8 414.6 807.4 412.3C809.0 410.0 809.4 407.2 811.4 404.2C813.4 401.3 816.2 399.6 819.4 394.5C822.6 389.4 827.8 378.0 830.6 373.5C833.3 369.0 834.5 369.8 835.9 367.6C837.4 365.5 837.1 364.3 839.2 360.7C841.3 357.1 845.3 350.4 848.5 346.0C851.8 341.7 855.0 339.3 858.6 334.7C862.1 330.1 867.1 322.0 869.8 318.5C872.5 315.0 872.9 316.1 874.5 313.7C876.2 311.3 877.6 306.9 879.6 304.0C881.6 301.0 883.8 300.3 886.5 295.9C889.2 291.5 893.1 281.8 895.8 277.5C898.4 273.2 900.7 272.6 902.4 270.0C904.2 267.4 904.5 264.7 906.4 261.9C908.2 259.2 911.6 256.5 913.6 253.6C915.6 250.6 916.6 246.8 918.4 244.2C920.2 241.5 922.7 239.8 924.1 237.7C925.5 235.5 925.6 233.1 926.6 231.2C927.6 229.3 926.1 234.2 930.3 226.4C934.4 218.6 947.1 192.4 951.6 184.3C956.1 176.2 955.4 180.8 957.4 177.9C959.5 174.9 961.5 169.9 963.7 166.7C965.9 163.5 967.5 163.6 970.6 158.5C973.6 153.3 979.3 141.9 982.1 135.8C985.0 129.8 986.3 125.3 987.9 122.1C989.5 118.8 990.7 118.4 991.7 116.4C992.7 114.4 993.1 111.8 994.1 110.0C995.1 108.1 996.6 107.3 997.8 105.1C999.1 102.9 1000.0 99.7 1001.7 97.0C1003.4 94.3 1006.7 91.6 1008.1 88.9C1009.5 86.2 1006.5 88.4 1010.0 80.8C1013.5 73.3 1025.4 50.6 1029.0 43.7C1032.6 36.8 1029.5 41.7 1031.6 39.5C1033.6 37.2 1039.1 32.6 1041.3 30.0C1043.5 27.5 1043.3 26.3 1044.8 24.3C1046.3 22.2 1049.5 19.2 1050.2 17.8C1051.0 16.4 1050.3 16.5 1049.4 16.0C1048.4 15.5 1049.4 14.6 1044.5 14.7C1039.7 14.9 1031.1 16.6 1020.3 16.9C1009.5 17.2 987.7 16.7 979.9 16.8C972.0 16.9 976.1 16.8 973.4 17.3C970.7 17.9 967.7 19.2 963.7 19.9C959.6 20.5 952.9 21.2 949.1 21.2C945.4 21.3 944.7 21.1 941.0 20.2C937.4 19.4 930.7 16.9 927.5 16.2C924.2 15.4 936.1 15.7 921.6 15.6C907.2 15.6 858.6 15.4 840.8 15.6C823.0 15.8 823.8 16.1 814.9 16.8C806.0 17.6 795.8 19.5 787.4 20.2C779.1 21.0 780.4 21.7 764.8 21.3C749.2 20.9 708.2 17.8 693.7 17.6C679.1 17.4 685.3 19.3 677.5 20.0C669.7 20.8 653.8 22.1 646.8 22.3C639.8 22.5 643.8 21.4 635.4 21.2C627.1 21.0 609.6 22.0 596.6 21.2C583.7 20.3 568.1 17.1 557.8 16.0C547.6 15.0 543.6 15.0 535.2 14.8C526.8 14.5 519.3 14.5 507.7 14.8C496.1 15.2 480.0 16.6 465.7 16.9C451.4 17.2 434.1 17.2 422.0 16.9C409.9 16.6 402.6 15.9 392.9 15.0C383.2 14.1 371.1 12.1 363.8 11.5C356.5 10.9 352.5 11.4 349.3 11.6C346.0 11.8 346.8 12.2 344.4 12.7ZM1091.4 16.1C1088.4 16.7 1088.1 17.0 1086.2 19.4C1084.3 21.8 1085.4 24.4 1080.1 30.5C1074.8 36.5 1059.7 49.4 1054.2 55.6C1048.7 61.9 1049.1 65.1 1047.2 67.9C1045.3 70.8 1043.8 70.9 1042.8 72.8C1041.8 74.6 1041.9 77.3 1041.0 79.2C1040.0 81.1 1037.8 82.5 1037.0 84.1C1036.3 85.7 1037.1 87.2 1036.2 88.9C1035.3 90.7 1032.6 92.7 1031.6 94.6C1030.6 96.5 1031.1 98.5 1030.3 100.2C1029.4 102.0 1027.2 103.2 1026.3 105.1C1025.3 107.0 1025.5 109.7 1024.6 111.6C1023.6 113.5 1021.5 114.3 1020.4 116.4C1019.3 118.6 1020.8 118.6 1018.2 124.5C1015.5 130.4 1007.0 146.1 1004.4 152.0C1001.8 157.9 1003.2 157.8 1002.4 160.1C1001.5 162.3 1000.1 163.5 999.3 165.4C998.4 167.3 998.0 169.6 997.1 171.4C996.2 173.2 994.8 174.4 993.8 176.2C992.8 178.1 992.9 180.3 991.4 182.7C989.8 185.1 987.0 186.8 984.5 190.8C982.0 194.8 977.8 203.5 976.2 207.0C974.6 210.5 975.0 210.5 975.1 211.8C975.2 213.1 975.8 214.1 976.6 214.6C977.4 215.1 978.3 215.3 979.9 214.8C981.4 214.3 982.0 215.3 985.7 211.8C989.5 208.4 998.3 199.2 1002.5 194.0C1006.7 188.9 1008.0 184.9 1010.9 181.1C1013.8 177.3 1017.5 174.6 1019.8 171.4C1022.2 168.2 1023.1 164.4 1024.9 161.7C1026.7 159.0 1028.9 157.9 1030.7 155.2C1032.6 152.5 1033.8 148.5 1035.8 145.5C1037.8 142.5 1040.1 141.7 1042.9 137.1C1045.7 132.5 1049.9 122.4 1052.6 118.0C1055.3 113.7 1057.2 113.6 1059.1 110.9C1061.0 108.1 1062.2 104.1 1063.9 101.5C1065.7 99.0 1068.1 97.5 1069.4 95.4C1070.8 93.3 1070.9 90.8 1071.9 88.9C1072.9 87.0 1074.0 86.5 1075.4 84.1C1076.8 81.7 1078.3 77.3 1080.3 74.4C1082.3 71.4 1084.3 71.7 1087.5 66.3C1090.8 60.9 1097.2 47.4 1099.8 42.0C1102.3 36.7 1102.4 36.1 1103.1 34.0C1103.7 31.8 1102.9 31.5 1103.8 29.1C1104.6 26.7 1107.5 21.3 1108.1 19.4C1108.8 17.5 1108.4 18.3 1107.8 17.8C1107.2 17.2 1107.1 16.4 1104.4 16.1C1101.6 15.8 1094.4 15.6 1091.4 16.1ZM1118.9 16.1C1113.4 16.5 1115.5 15.9 1115.0 17.8C1114.5 19.7 1116.0 23.7 1115.9 27.5C1115.7 31.3 1115.5 34.8 1114.3 40.4C1113.2 46.1 1110.1 56.6 1109.1 61.4C1108.1 66.3 1109.4 64.9 1108.3 69.5C1107.3 74.1 1104.6 84.9 1103.1 88.9C1101.5 93.0 1100.1 91.6 1099.1 93.8C1098.0 95.9 1098.8 97.3 1096.9 101.9C1094.9 106.4 1090.4 116.1 1087.4 121.3C1084.4 126.4 1080.8 129.6 1078.8 132.6C1076.8 135.6 1076.8 136.9 1075.2 139.1C1073.7 141.2 1071.1 142.8 1069.3 145.5C1067.5 148.2 1065.9 152.8 1064.3 155.2C1062.7 157.6 1060.7 158.2 1059.7 160.1C1058.6 162.0 1059.4 164.1 1058.0 166.5C1056.6 169.0 1054.0 170.3 1051.4 174.6C1048.9 178.9 1045.0 188.4 1042.6 192.4C1040.2 196.5 1038.8 196.2 1036.8 198.9C1034.8 201.6 1033.1 205.1 1030.6 208.6C1028.1 212.1 1024.1 216.7 1021.8 219.9C1019.5 223.1 1019.3 225.0 1017.0 228.0C1014.8 230.9 1010.7 234.5 1008.4 237.7C1006.2 240.9 1005.4 244.3 1003.3 247.4C1001.3 250.4 998.0 253.0 996.0 256.0C994.0 258.9 992.9 262.8 991.3 265.2C989.7 267.5 990.1 263.7 986.3 270.2C982.6 276.7 973.5 295.7 968.7 304.0C964.0 312.3 960.6 316.4 957.8 320.1C954.9 323.9 953.6 323.9 951.7 326.6C949.9 329.3 948.8 333.4 946.7 336.3C944.6 339.3 941.8 340.9 939.1 344.4C936.4 347.9 933.3 353.8 930.7 357.3C928.1 360.8 925.1 362.9 923.4 365.4C921.6 368.0 921.4 370.2 920.0 372.5C918.7 374.9 916.3 377.3 915.2 379.4C914.1 381.4 914.4 383.1 913.3 384.8C912.3 386.5 910.2 388.0 908.9 389.7C907.6 391.4 907.4 391.5 905.5 395.2C903.6 398.8 899.6 407.8 897.4 411.4C895.2 415.1 894.0 414.3 892.1 417.2C890.2 420.0 888.1 425.5 886.1 428.5C884.0 431.4 881.9 432.0 879.8 435.0C877.7 437.9 875.2 443.8 873.6 446.3C871.9 448.7 872.6 446.3 869.9 449.8C867.2 453.3 860.5 463.6 857.6 467.3C854.7 471.0 854.7 469.3 852.7 472.1C850.7 475.0 848.1 481.1 845.6 484.6C843.2 488.1 841.6 488.5 837.8 493.2C834.0 497.8 828.5 506.1 823.0 512.3C817.6 518.5 808.7 526.0 805.1 530.3C801.5 534.7 803.1 535.7 801.4 538.4C799.6 541.1 796.4 543.8 794.7 546.5C792.9 549.2 792.3 552.2 790.7 554.6C789.0 557.0 786.5 558.4 784.7 561.1C782.9 563.8 781.7 567.8 779.7 570.8C777.6 573.7 774.4 576.2 772.6 578.9C770.7 581.6 770.4 583.9 768.6 586.9C766.7 590.0 766.1 592.5 761.6 597.0C757.0 601.6 745.2 611.0 741.4 614.4C737.6 617.9 740.6 614.4 738.7 617.7C736.9 620.9 732.1 629.8 730.4 633.8C728.8 637.9 729.8 638.7 728.7 641.9C727.5 645.1 725.0 650.5 723.6 653.2C722.1 655.9 721.0 656.2 720.0 658.1C718.9 660.0 719.1 661.9 717.4 664.6C715.7 667.2 712.6 669.7 709.8 674.3C707.1 678.8 703.8 687.5 700.9 692.0C697.9 696.6 694.4 698.8 692.0 701.7C689.7 704.7 689.4 706.7 687.0 709.8C684.5 713.0 680.6 717.4 677.5 720.7C674.4 723.9 671.1 726.2 668.5 729.2C666.0 732.3 665.3 735.2 662.4 738.9C659.5 742.7 654.1 747.8 651.2 751.9C648.3 755.9 649.4 757.8 645.0 763.2C640.7 768.6 629.3 779.6 625.3 784.2C621.3 788.8 624.4 786.6 621.0 790.7C617.7 794.7 610.9 799.6 605.2 808.5C599.5 817.4 590.5 835.1 586.8 844.0C583.0 852.9 583.2 858.4 582.7 861.8C582.2 865.3 583.3 864.2 583.7 864.6C584.1 865.1 583.6 865.7 585.3 864.4C587.1 863.2 591.1 860.9 594.2 857.0C597.3 853.0 601.7 844.6 603.8 840.8C605.8 837.0 605.3 836.2 606.5 834.3C607.8 832.4 609.6 830.7 611.2 829.5C612.8 828.3 614.4 827.4 616.0 827.0C617.7 826.6 619.6 826.8 620.9 827.2C622.2 827.6 622.9 827.8 623.7 829.5C624.4 831.2 625.2 835.4 625.2 837.6C625.2 839.7 624.6 840.3 623.5 842.4C622.4 844.6 619.4 848.9 618.7 850.5C618.0 852.1 618.6 851.9 619.3 852.1C619.9 852.4 621.4 852.2 622.5 852.0C623.6 851.7 622.8 852.4 625.7 850.6C628.7 848.8 636.8 843.1 640.3 841.1C643.8 839.1 645.1 838.8 646.8 838.5C648.4 838.1 648.7 838.4 650.0 838.8C651.3 839.2 652.6 839.7 654.3 840.8C656.0 841.9 658.6 844.0 660.0 845.6C661.4 847.3 662.0 848.9 662.7 850.5C663.3 852.1 664.1 852.7 663.9 855.3C663.7 858.0 662.3 863.7 661.5 866.7C660.7 869.6 659.4 871.5 659.0 873.1C658.5 874.8 658.6 875.6 658.8 876.4C658.9 877.1 659.0 877.4 659.7 877.8C660.4 878.1 661.9 878.5 662.9 878.4C664.0 878.3 663.2 879.3 666.2 877.3C669.1 875.2 677.5 868.3 680.7 866.1C684.0 864.0 684.0 864.6 685.6 864.4C687.2 864.1 687.7 863.8 690.4 864.7C693.2 865.6 698.6 868.0 702.1 869.9C705.5 871.8 706.7 872.1 711.2 876.4C715.7 880.6 725.3 890.9 729.2 895.5C733.2 900.1 733.6 901.7 734.8 903.9C736.0 906.1 736.4 905.2 736.5 908.7C736.6 912.2 736.4 920.0 735.2 924.9C734.0 929.7 731.3 934.6 729.3 937.8C727.3 941.0 726.1 939.9 723.4 944.3C720.7 948.7 715.7 960.0 713.1 964.3C710.5 968.6 709.7 967.3 707.8 970.1C705.9 973.0 702.8 978.5 701.6 981.5C700.5 984.4 700.8 986.0 700.8 987.9C700.8 989.8 701.2 991.8 701.6 992.8C702.1 993.8 702.5 993.7 703.4 993.9C704.2 994.2 705.5 994.4 706.6 994.2C707.7 994.0 708.7 993.6 709.8 992.9C710.9 992.2 711.7 991.9 713.1 990.2C714.4 988.4 716.2 984.7 717.9 982.4C719.6 980.2 721.0 980.6 723.4 976.6C725.9 972.6 729.8 963.1 732.5 958.5C735.2 953.9 738.2 951.8 739.7 949.1C741.2 946.5 740.1 944.8 741.6 942.7C743.1 940.5 746.4 937.8 748.6 936.4C750.9 935.0 753.5 934.3 755.1 934.2C756.7 934.0 757.3 934.8 758.3 935.4C759.4 936.1 760.3 935.9 761.6 938.2C762.8 940.5 763.8 944.6 765.9 949.1C768.1 953.7 771.9 957.2 774.5 965.3C777.1 973.4 780.6 990.4 781.4 997.6C782.2 1004.9 780.4 1005.6 779.3 1009.0C778.1 1012.3 777.5 1014.6 774.5 1017.6C771.6 1020.6 766.1 1024.1 761.6 1027.0C757.0 1029.9 751.0 1032.6 747.0 1035.0C743.0 1037.4 739.7 1039.4 737.7 1041.3C735.7 1043.1 735.1 1044.8 734.9 1046.1C734.7 1047.5 734.9 1048.6 736.4 1049.4C737.9 1050.1 741.2 1050.7 743.8 1050.7C746.4 1050.7 745.1 1052.7 751.9 1049.4C758.6 1046.1 776.7 1034.2 784.2 1030.8C791.7 1027.4 793.6 1029.1 797.1 1028.9C800.6 1028.7 803.1 1029.3 805.2 1029.6C807.4 1029.9 808.1 1030.1 810.1 1031.0C812.0 1031.8 814.7 1033.1 817.0 1034.8C819.3 1036.5 822.3 1039.4 823.9 1041.3C825.5 1043.2 826.2 1044.8 826.7 1046.1C827.3 1047.5 827.6 1047.8 827.4 1049.4C827.2 1051.0 827.2 1053.2 825.7 1055.8C824.2 1058.5 819.5 1063.4 818.3 1065.5C817.0 1067.7 818.0 1067.9 818.3 1068.8C818.5 1069.7 817.6 1069.5 819.8 1070.8C821.9 1072.1 827.6 1075.1 831.1 1076.7C834.6 1078.3 838.4 1079.6 840.8 1080.4C843.2 1081.1 843.5 1081.1 845.6 1081.2C847.8 1081.4 848.9 1080.6 853.7 1081.1C858.6 1081.5 868.6 1082.1 874.8 1084.0C880.9 1085.9 887.9 1090.3 890.9 1092.3C893.9 1094.4 892.8 1095.1 892.9 1096.3C893.1 1097.5 892.7 1098.3 891.9 1099.5C891.0 1100.7 889.2 1102.2 887.7 1103.3C886.2 1104.4 884.0 1105.0 882.7 1106.0C881.4 1107.0 880.4 1108.1 879.9 1109.2C879.4 1110.3 879.5 1111.6 879.6 1112.4C879.7 1113.2 879.9 1113.5 880.4 1114.1C880.9 1114.6 880.0 1115.0 882.8 1115.5C885.7 1116.0 891.2 1117.2 897.4 1117.1C903.6 1117.1 914.6 1115.9 920.0 1115.1C925.4 1114.4 923.3 1112.6 929.7 1112.8C936.2 1113.0 951.0 1115.8 958.8 1116.4C966.6 1117.1 968.3 1116.8 976.6 1116.6C985.0 1116.3 997.9 1114.7 1009.0 1114.8C1020.0 1114.8 1035.9 1116.1 1042.9 1116.8C1049.9 1117.4 1048.6 1117.8 1051.0 1118.7C1053.3 1119.6 1055.9 1121.3 1057.0 1122.1C1058.1 1123.0 1057.8 1123.0 1057.6 1123.8C1057.4 1124.5 1057.2 1125.6 1055.8 1126.7C1054.5 1127.8 1053.0 1129.3 1049.4 1130.5C1045.8 1131.6 1037.0 1132.7 1034.2 1133.5C1031.3 1134.2 1032.1 1134.5 1032.2 1135.1C1032.3 1135.6 1032.5 1136.1 1034.8 1136.7C1037.1 1137.2 1041.0 1137.1 1046.1 1138.4C1051.3 1139.7 1061.0 1142.8 1065.5 1144.4C1070.1 1146.0 1070.7 1147.0 1073.6 1148.0C1076.6 1149.0 1080.9 1149.5 1083.3 1150.4C1085.8 1151.3 1084.5 1151.9 1088.2 1153.4C1091.8 1154.9 1094.7 1156.8 1105.2 1159.3C1115.7 1161.9 1139.7 1166.1 1151.2 1168.8C1162.8 1171.5 1168.5 1174.0 1174.4 1175.5C1180.3 1177.0 1180.4 1176.2 1186.8 1177.8C1193.2 1179.4 1207.8 1183.6 1212.7 1185.2C1217.5 1186.8 1215.2 1186.8 1215.9 1187.6C1216.6 1188.4 1216.9 1189.1 1217.1 1190.0C1217.3 1191.0 1217.5 1192.0 1217.1 1193.3C1216.6 1194.6 1216.9 1196.4 1214.3 1197.8C1211.7 1199.1 1207.3 1200.9 1201.4 1201.5C1195.4 1202.2 1184.1 1201.8 1178.7 1201.5C1173.3 1201.3 1175.2 1200.4 1169.0 1199.9C1162.8 1199.4 1148.3 1199.1 1141.5 1198.4C1134.8 1197.7 1132.1 1196.3 1128.6 1195.9C1125.1 1195.6 1122.9 1196.5 1120.5 1196.2C1118.1 1196.0 1115.7 1194.7 1114.1 1194.5C1112.4 1194.2 1111.2 1194.6 1110.6 1194.9C1109.9 1195.2 1110.0 1196.0 1110.1 1196.5C1110.2 1197.1 1109.0 1197.0 1111.3 1198.1C1113.6 1199.2 1114.1 1200.7 1123.8 1203.2C1133.4 1205.6 1155.8 1209.3 1169.0 1213.0C1182.2 1216.6 1194.9 1222.7 1203.0 1224.9C1211.1 1227.2 1209.7 1225.2 1217.5 1226.5C1225.4 1227.9 1243.9 1231.6 1249.9 1232.9C1255.8 1234.2 1251.8 1233.4 1253.1 1234.3C1254.5 1235.2 1256.3 1236.1 1258.0 1238.3C1259.6 1240.5 1261.7 1245.8 1262.8 1247.5C1263.9 1249.1 1263.9 1248.4 1264.4 1248.5C1265.0 1248.6 1265.5 1249.0 1266.0 1247.9C1266.6 1246.7 1267.3 1245.5 1267.7 1241.8C1268.0 1238.1 1267.6 1229.9 1267.9 1225.6C1268.2 1221.3 1269.1 1222.7 1269.4 1215.9C1269.6 1209.2 1269.2 1191.7 1269.5 1185.2C1269.8 1178.7 1270.8 1182.8 1271.0 1177.1C1271.2 1171.5 1271.6 1160.9 1270.9 1151.2C1270.2 1141.5 1267.6 1127.0 1266.9 1118.9C1266.1 1110.8 1267.3 1108.1 1266.6 1102.7C1266.0 1097.3 1263.0 1090.3 1262.8 1086.6C1262.6 1082.8 1264.4 1085.0 1265.3 1080.1C1266.1 1075.2 1267.5 1062.9 1267.9 1057.5C1268.4 1052.1 1267.6 1052.6 1268.1 1047.8C1268.6 1042.9 1270.5 1042.1 1271.0 1028.4C1271.5 1014.6 1271.2 977.7 1270.9 965.3C1270.6 952.9 1269.6 958.3 1269.4 954.0C1269.1 949.7 1269.7 944.8 1269.3 939.4C1268.9 934.0 1267.3 927.3 1266.9 921.6C1266.5 916.0 1266.9 909.2 1266.6 905.5C1266.4 901.7 1265.5 905.7 1265.3 899.0C1265.1 892.3 1265.2 872.3 1265.4 865.0C1265.7 857.8 1266.4 862.4 1266.8 855.3C1267.3 848.3 1267.7 829.7 1268.1 823.0C1268.6 816.3 1269.3 825.2 1269.5 814.9C1269.7 804.7 1269.7 772.3 1269.4 761.6C1269.1 750.8 1268.1 767.0 1267.8 750.2C1267.6 733.5 1267.7 678.0 1267.9 661.3C1268.2 644.6 1269.2 667.0 1269.5 650.0C1269.7 633.0 1269.8 579.1 1269.4 559.5C1268.9 539.8 1267.3 540.0 1266.9 532.0C1266.4 523.9 1266.9 515.5 1266.6 510.9C1266.4 506.4 1265.5 510.7 1265.3 504.5C1265.1 498.3 1265.6 480.5 1265.3 473.8C1265.1 467.0 1264.0 466.7 1263.7 464.1C1263.5 461.4 1263.6 460.0 1263.9 457.6C1264.1 455.2 1265.2 457.9 1265.4 449.5C1265.7 441.1 1265.3 415.5 1265.5 407.5C1265.8 399.4 1266.4 407.5 1266.8 401.0C1267.2 394.5 1267.7 375.1 1268.1 368.7C1268.5 362.2 1268.9 368.4 1269.4 362.2C1269.9 356.0 1270.5 339.6 1271.1 331.5C1271.7 323.4 1273.0 318.0 1273.2 313.7C1273.4 309.4 1272.5 309.9 1272.3 305.6C1272.2 301.3 1272.8 294.8 1272.2 287.8C1271.7 280.8 1269.8 270.8 1269.3 263.6C1268.8 256.3 1269.6 249.0 1269.4 244.2C1269.1 239.3 1268.0 238.5 1267.8 234.5C1267.7 230.4 1267.7 225.0 1268.2 219.9C1268.7 214.8 1270.3 208.9 1270.8 203.7C1271.3 198.6 1270.8 192.7 1271.1 189.2C1271.4 185.7 1272.1 187.8 1272.3 182.7C1272.5 177.6 1272.9 166.8 1272.4 158.5C1271.9 150.1 1269.9 139.3 1269.4 132.6C1268.9 125.8 1269.6 121.5 1269.4 118.0C1269.1 114.5 1268.3 114.8 1268.0 111.6C1267.8 108.3 1268.1 102.7 1267.9 98.6C1267.7 94.6 1267.0 98.9 1266.8 87.3C1266.5 75.7 1266.9 39.6 1266.6 29.1C1266.3 18.6 1265.6 25.4 1265.0 24.3C1264.3 23.1 1264.2 23.0 1262.8 22.2C1261.4 21.3 1259.0 20.1 1256.3 19.2C1253.6 18.3 1261.7 17.2 1246.6 16.8C1231.6 16.5 1182.2 17.1 1165.8 16.9C1149.4 16.7 1155.8 15.7 1148.0 15.6C1140.2 15.5 1124.4 15.7 1118.9 16.1ZM24.3 543.1C23.7 542.8 23.0 543.0 22.6 543.3C22.3 543.6 22.2 542.5 22.0 544.9C21.9 547.3 21.6 547.3 21.5 557.8C21.4 568.3 21.2 597.7 21.5 608.0C21.7 618.2 22.9 615.2 23.0 619.3C23.0 623.3 21.8 615.2 21.6 632.2C21.3 649.2 21.2 703.4 21.4 721.1C21.7 738.9 23.1 734.6 23.1 738.9C23.2 743.2 22.1 743.0 21.8 747.0C21.5 751.1 21.9 756.7 21.4 763.2C21.0 769.7 19.0 779.9 18.9 785.8C18.7 791.7 19.9 789.3 20.4 798.8C20.8 808.2 21.9 830.8 21.6 842.4C21.4 854.0 19.5 861.5 19.0 868.3C18.6 875.0 19.1 879.1 18.9 882.8C18.6 886.6 17.7 886.6 17.4 890.9C17.1 895.2 17.1 904.4 17.3 908.7C17.5 913.0 18.0 909.5 18.7 916.8C19.4 924.1 21.1 932.7 21.5 952.4C22.0 972.0 21.2 1019.2 21.5 1034.8C21.7 1050.5 22.7 1038.6 22.9 1046.1C23.2 1053.7 22.5 1070.9 23.0 1080.1C23.5 1089.3 25.7 1093.8 26.0 1101.1C26.2 1108.4 25.0 1118.4 24.5 1123.8C24.0 1129.1 23.3 1124.6 23.0 1133.5C22.8 1142.4 23.3 1168.5 23.0 1177.1C22.8 1185.7 22.1 1179.5 21.7 1185.2C21.3 1190.9 20.8 1205.7 20.4 1211.1C20.0 1216.5 19.2 1214.0 19.3 1217.5C19.4 1221.0 20.3 1229.4 20.8 1232.1C21.3 1234.8 21.6 1233.4 22.2 1233.7C22.8 1234.0 22.8 1234.6 24.3 1234.1C25.7 1233.5 25.6 1235.2 30.7 1230.2C35.8 1225.3 49.3 1210.2 54.7 1204.6C60.1 1199.0 59.2 1201.4 63.1 1196.9C66.9 1192.4 73.4 1182.8 77.6 1177.7C81.8 1172.5 86.1 1168.6 88.1 1165.8C90.2 1163.0 89.9 1162.1 90.0 1160.9C90.1 1159.8 90.5 1158.8 88.9 1158.9C87.4 1159.0 83.2 1160.1 80.8 1161.5C78.5 1162.9 76.7 1165.1 74.6 1167.4C72.5 1169.7 70.2 1173.1 68.0 1175.5C65.9 1177.9 63.6 1179.9 61.4 1181.7C59.3 1183.4 56.3 1186.0 55.0 1186.0C53.6 1186.1 53.6 1183.2 53.4 1182.0C53.1 1180.8 52.8 1180.1 53.5 1178.7C54.2 1177.4 56.5 1175.8 57.4 1173.9C58.4 1172.0 58.1 1169.6 59.4 1167.4C60.6 1165.3 62.4 1165.3 65.1 1160.9C67.7 1156.6 72.6 1145.9 75.2 1141.5C77.9 1137.2 78.9 1138.0 80.8 1135.1C82.8 1132.1 85.3 1126.5 87.1 1123.8C88.9 1121.1 90.5 1120.8 91.6 1118.9C92.8 1117.0 93.0 1114.3 94.0 1112.4C95.0 1110.6 96.1 1110.2 97.7 1107.6C99.3 1105.0 99.6 1101.5 103.5 1096.9C107.4 1092.2 115.1 1084.6 121.3 1079.7C127.4 1074.7 133.2 1071.4 140.2 1067.2C147.3 1062.9 156.0 1059.1 163.6 1054.2C171.2 1049.3 181.4 1041.3 185.9 1037.8C190.5 1034.3 189.2 1035.0 190.9 1033.2C192.6 1031.4 194.4 1029.2 196.1 1026.7C197.7 1024.3 198.6 1021.4 200.7 1018.7C202.8 1015.9 206.5 1013.0 208.6 1010.3C210.7 1007.7 208.6 1007.6 213.4 1002.8C218.3 998.1 232.0 987.0 237.7 981.8C243.4 976.6 245.5 974.5 247.6 971.8C249.7 969.0 249.2 967.2 250.2 965.3C251.3 963.4 252.6 962.6 253.9 960.4C255.1 958.3 255.6 955.6 257.8 952.4C259.9 949.1 264.2 944.8 266.6 941.0C269.0 937.3 271.1 932.7 272.3 929.7C273.5 926.8 274.0 925.1 273.9 923.3C273.8 921.4 273.5 920.5 271.7 918.4C270.0 916.3 265.5 912.0 263.6 910.4C261.7 908.8 261.9 909.1 260.3 908.7C258.7 908.3 255.7 907.9 253.9 908.2C252.0 908.5 251.0 908.9 249.1 910.3C247.2 911.8 246.5 913.6 242.4 916.8C238.3 920.0 229.9 926.4 224.8 929.6C219.7 932.7 215.3 934.3 211.8 935.8C208.3 937.3 205.6 938.0 203.7 938.4C201.8 938.9 201.8 938.8 200.5 938.6C199.2 938.3 197.3 937.7 195.6 936.8C194.0 936.0 193.3 935.6 190.8 933.3C188.3 931.1 183.0 926.0 180.4 923.3C177.9 920.5 181.4 927.8 175.5 916.8C169.5 905.7 150.7 869.1 144.8 857.0C138.9 844.8 141.5 850.0 140.2 844.0C139.0 838.1 138.6 828.4 137.2 821.4C135.9 814.4 133.6 807.1 132.0 802.0C130.4 796.9 132.7 798.2 127.5 790.7C122.2 783.1 106.7 765.9 100.5 756.7C94.2 747.6 93.1 743.8 89.9 735.7C86.8 727.6 84.5 716.8 81.5 708.2C78.4 699.6 74.7 690.7 71.8 684.0C68.8 677.2 65.4 672.1 63.7 667.8C62.0 663.5 62.6 661.6 61.3 658.1C60.0 654.6 57.2 650.3 55.9 646.8C54.6 643.3 54.5 639.8 53.6 637.1C52.7 634.4 51.4 633.3 50.4 630.6C49.5 627.9 48.9 623.6 48.0 620.9C47.1 618.2 45.9 617.1 45.0 614.4C44.1 611.7 43.4 607.4 42.5 604.7C41.7 602.0 40.4 600.4 39.8 598.3C39.3 596.1 39.6 594.2 39.2 591.8C38.8 589.4 38.1 586.4 37.3 583.7C36.4 581.0 34.7 578.0 34.1 575.6C33.4 573.2 34.1 572.7 33.5 569.2C32.8 565.7 31.5 558.6 30.2 554.6C28.9 550.6 26.9 546.8 25.9 544.9C24.9 543.0 24.8 543.3 24.3 543.1ZM383.2 1033.0C380.9 1033.3 377.7 1032.7 372.6 1034.8C367.5 1036.9 361.3 1040.1 352.5 1045.5C343.7 1050.9 328.0 1061.4 319.9 1067.2C311.8 1072.9 308.1 1076.3 304.0 1079.8C299.9 1083.3 298.4 1085.4 295.1 1088.2C291.9 1090.9 290.0 1091.1 284.3 1096.3C278.7 1101.4 265.9 1114.3 261.3 1118.9C256.8 1123.5 258.4 1121.9 257.2 1123.8C255.9 1125.6 255.4 1127.9 253.9 1130.1C252.3 1132.2 249.6 1134.0 247.8 1136.7C245.9 1139.4 245.7 1142.6 242.8 1146.4C239.8 1150.2 233.0 1156.4 229.9 1159.3C226.9 1162.3 227.4 1162.0 224.5 1164.2C221.6 1166.3 216.8 1168.7 212.5 1172.3C208.2 1175.8 203.6 1181.2 198.9 1185.5C194.2 1189.8 189.8 1194.1 184.3 1197.8C178.8 1201.6 172.0 1205.1 165.8 1207.8C159.6 1210.6 154.3 1212.6 147.1 1214.3C140.0 1216.0 127.7 1217.6 122.9 1217.9C118.0 1218.2 119.9 1217.1 118.0 1216.1C116.1 1215.1 113.2 1212.7 111.6 1211.9C110.0 1211.1 109.7 1211.3 108.3 1211.3C107.0 1211.4 105.6 1211.5 103.5 1212.1C101.3 1212.8 98.9 1213.3 95.4 1215.3C91.9 1217.2 85.6 1222.3 82.6 1224.0C79.7 1225.7 79.1 1224.9 77.6 1225.7C76.1 1226.5 74.2 1228.1 73.5 1228.9C72.7 1229.6 72.9 1230.0 73.0 1230.5C73.2 1230.9 72.0 1231.3 74.4 1231.5C76.8 1231.7 85.0 1231.5 87.3 1231.6C89.6 1231.7 88.4 1231.7 88.4 1232.1C88.4 1232.4 88.3 1233.2 87.5 1233.7C86.8 1234.2 86.3 1234.7 84.1 1235.2C81.9 1235.6 76.8 1235.5 74.4 1236.4C72.0 1237.3 72.2 1239.5 69.5 1240.7C66.8 1242.0 63.9 1241.5 58.2 1243.9C52.5 1246.2 40.4 1252.3 35.6 1254.7C30.7 1257.2 30.5 1257.6 29.1 1258.7C27.7 1259.8 27.4 1260.5 27.1 1261.2C26.7 1261.9 26.5 1261.7 27.1 1262.8C27.7 1263.9 29.6 1266.6 30.7 1267.7C31.8 1268.7 29.7 1268.7 33.8 1269.3C37.8 1269.8 44.7 1270.9 55.0 1270.9C65.2 1270.8 86.5 1269.6 95.4 1269.0C104.3 1268.4 99.4 1267.6 108.3 1267.3C117.2 1267.0 139.6 1266.9 148.8 1267.3C157.9 1267.7 156.0 1269.1 163.3 1269.7C170.6 1270.2 183.3 1270.5 192.4 1270.4C201.6 1270.3 210.2 1269.8 218.3 1269.0C226.4 1268.1 229.6 1265.2 240.9 1265.4C252.2 1265.6 255.2 1269.2 286.2 1269.9C317.2 1270.7 397.5 1270.1 426.9 1270.0C456.2 1269.8 450.6 1268.8 462.4 1268.9C474.3 1269.1 489.9 1270.3 498.0 1271.0C506.1 1271.7 506.4 1273.0 510.9 1273.0C515.5 1272.9 505.8 1271.2 525.5 1270.9C545.2 1270.6 609.0 1270.6 629.0 1270.9C648.9 1271.2 635.7 1272.6 645.1 1272.9C654.6 1273.2 676.7 1273.2 685.6 1272.9C694.5 1272.6 692.8 1271.2 698.5 1270.9C704.2 1270.6 709.3 1271.3 719.5 1271.0C729.8 1270.7 750.5 1269.3 760.0 1269.0C769.4 1268.6 771.3 1269.3 776.1 1269.0C781.0 1268.8 775.3 1267.6 789.1 1267.3C802.8 1267.0 838.9 1266.5 858.6 1267.3C878.3 1268.1 890.9 1271.8 907.1 1271.9C923.3 1272.1 947.2 1268.9 955.6 1268.2C964.0 1267.5 957.3 1268.0 957.8 1267.7C958.2 1267.3 962.6 1267.4 958.4 1266.0C954.3 1264.7 939.4 1260.8 933.0 1259.4C926.6 1258.1 925.1 1259.0 920.0 1258.1C914.9 1257.2 908.2 1255.1 902.2 1253.9C896.3 1252.8 894.2 1252.2 884.5 1251.0C874.8 1249.9 857.0 1247.7 844.0 1247.0C831.1 1246.3 815.7 1247.1 806.8 1246.8C797.9 1246.5 794.7 1245.7 790.7 1245.1C786.6 1244.5 787.4 1243.9 782.6 1243.1C777.7 1242.3 766.7 1240.7 761.6 1240.2C756.4 1239.6 766.1 1242.6 751.9 1239.7C737.6 1236.8 690.4 1226.0 675.9 1222.7C661.3 1219.3 667.9 1220.7 664.6 1219.5C661.2 1218.4 658.4 1216.8 655.7 1215.9C653.0 1215.1 650.9 1215.4 648.4 1214.4C645.8 1213.4 643.3 1211.1 640.3 1210.0C637.3 1208.9 633.6 1208.8 630.6 1207.8C627.6 1206.9 625.7 1205.3 622.5 1204.1C619.3 1202.8 615.2 1202.1 611.2 1200.4C607.2 1198.7 601.5 1195.8 598.3 1193.9C595.0 1192.0 594.8 1190.6 591.8 1188.9C588.8 1187.1 584.2 1184.8 580.5 1183.4C576.7 1181.9 572.3 1181.4 569.2 1180.3C566.1 1179.3 564.4 1177.9 561.9 1177.1C559.4 1176.3 559.6 1177.3 554.1 1175.5C548.5 1173.7 534.3 1168.2 528.7 1166.4C523.2 1164.6 523.3 1165.4 520.6 1164.5C518.0 1163.6 515.5 1161.9 512.6 1160.9C509.6 1160.0 506.1 1159.8 502.9 1158.8C499.6 1157.7 496.1 1155.7 493.2 1154.7C490.2 1153.7 487.8 1153.9 485.1 1153.0C482.4 1152.1 481.5 1150.9 477.0 1149.3C472.5 1147.6 462.8 1145.0 458.2 1143.2C453.6 1141.3 454.0 1140.2 449.3 1138.3C444.6 1136.5 439.4 1136.1 430.1 1132.1C420.8 1128.0 401.3 1118.6 393.7 1114.1C386.2 1109.5 387.1 1107.7 384.8 1104.7C382.5 1101.8 380.9 1098.8 379.8 1096.3C378.7 1093.8 378.3 1093.8 378.0 1089.8C377.7 1085.8 377.8 1075.8 378.0 1072.0C378.3 1068.2 378.8 1068.5 379.4 1067.2C380.0 1065.8 380.8 1064.8 381.7 1063.9C382.6 1063.1 383.0 1062.6 384.8 1062.0C386.7 1061.4 389.9 1061.3 392.9 1060.2C395.9 1059.2 400.5 1057.1 402.6 1055.8C404.7 1054.6 404.6 1054.0 405.3 1052.6C406.1 1051.3 406.9 1049.9 406.9 1047.8C406.9 1045.6 406.0 1041.6 405.2 1039.7C404.5 1037.7 405.7 1037.1 402.6 1036.0C399.5 1034.8 389.7 1033.2 386.4 1032.7C383.2 1032.2 385.5 1032.6 383.2 1033.0ZM98.6 1225.6C99.9 1225.4 99.9 1225.8 100.2 1226.0C100.6 1226.3 100.9 1226.8 100.9 1227.2C100.9 1227.7 101.2 1228.3 100.2 1228.9C99.3 1229.4 97.1 1230.2 95.4 1230.5C93.6 1230.7 90.2 1231.0 89.7 1230.5C89.3 1229.9 91.3 1228.0 92.8 1227.2C94.3 1226.4 97.4 1225.8 98.6 1225.6Z"/>
</svg>
