<?xml version="1.0" encoding="UTF-8"?>
<!-- TNC - the monogram (2026-10-08, "Create an SVG like this but using the
     T N and C from the wordmark ... and the box beneath it"; the T then
     whole, to the left of the N, smaller so the box fits in the N's
     height; then "move the letters to the top right corner of the box and
     add the bird in, just the bird, at the current angle", "15% smaller
     than it is in the current stamp"). After an HVD mark: a square with
     the letters knocked out. T, N and C are the letters of
     assets/wordmark.svg as drawn (the T CRITIC's), in that order at the
     wordmark's own spacing (0.10 of the cap, 0.12 beside the C's round
     side). Under the T, a stroke below it, is a box that is the T's own
     crossbar; the T and box together are scaled by 0.732 so the
     pair is as tall as the N and C. The letters in the top right, only
     in the square's right third ("I want to see the Letters only in the
     top right, the right 1/3 of the image"): from the third line to the
     margin, scaled by 0.371, their top on the margin. The bird is the
     stamp's (#bird in assets/stamp-frame.svg) at its angle, with the
     specks in it and none of those outside it, its box's middle on the
     square's ("And center the bird"), as big as it goes ("Make the Bird
     Really big"): 2.02 of its size in the stamp, where the stamp is a cap
     tall - the most that keeps it inside the 79 margin and a letter
     gap (60) clear of the letters. One path, even-odd, so the
     letters and the bird are holes and the bird's specks the square's
     colour; charcoal #121417 as in the wordmark. -->
<svg xmlns="http://www.w3.org/2000/svg" viewBox="0 0 1300 1300" width="1300" height="1300" role="img" aria-label="The New Critic">
  <path fill="#121417" fill-rule="evenodd" d="M0 0H1300V1300H0Z M867.2 79.4 868.4 79.1 871.0 79.0 943.6 78.9 946.2 79.1 947.2 79.8 947.4 81.7 947.5 96.8 947.4 106.4 947.0 108.2 946.4 108.7 945.0 108.9 924.6 108.9 923.3 109.3 922.7 110.2 922.6 239.2 922.3 241.1 921.4 241.8 893.5 241.8 892.2 241.6 891.5 240.7 891.2 233.9 891.3 117.2 891.1 110.3 890.6 109.3 889.3 108.9 871.6 109.0 868.0 108.7 867.0 108.1 866.7 106.2 866.7 84.1 866.7 81.0Z M867.2 272.1 868.4 271.8 871.0 271.7 943.6 271.6 946.2 271.8 947.2 272.6 947.4 274.4 947.5 289.5 947.4 299.1 947.0 300.9 946.4 301.4 945.0 301.6 871.6 301.7 868.0 301.5 867.0 300.8 866.7 298.9 866.7 276.9 866.7 273.7Z M970.5 79.6 972.8 79.1 1009.5 79.0 1011.5 79.2 1012.9 80.0 1013.8 82.0 1039.1 164.8 1042.3 173.7 1042.6 155.8 1042.5 82.3 1042.8 80.4 1043.4 79.6 1044.5 79.1 1050.2 78.9 1081.8 79.0 1083.8 79.3 1085.0 80.2 1085.4 83.6 1085.5 96.8 1085.4 282.8 1085.3 298.9 1084.9 300.6 1084.1 301.3 1081.4 301.6 1047.6 301.6 1044.8 301.4 1043.2 300.8 1035.0 273.8 1016.6 215.7 1013.6 206.5 1013.0 205.6 1012.7 207.9 1012.8 290.2 1012.4 300.2 1011.7 301.0 1010.7 301.4 1004.9 301.7 974.1 301.6 971.4 301.3 970.3 300.3 969.9 297.8 969.7 263.9 969.8 89.0 969.9 81.7Z M1162.4 79.1 1167.9 79.0 1176.6 79.6 1180.4 80.2 1185.4 81.6 1194.7 85.9 1199.9 89.3 1203.7 92.7 1210.8 102.1 1213.7 106.9 1215.2 110.3 1218.8 123.3 1219.8 128.8 1221.0 139.8 1221.0 151.5 1220.5 153.3 1219.7 153.9 1216.4 154.3 1179.0 154.1 1178.0 153.6 1177.4 152.2 1177.2 129.1 1176.6 125.9 1175.2 123.1 1173.8 121.7 1171.0 120.2 1169.1 119.7 1166.5 119.7 1164.1 120.3 1161.9 121.6 1160.0 123.5 1159.0 125.3 1158.5 127.3 1157.6 140.5 1157.6 249.5 1157.8 253.6 1159.6 257.9 1160.7 259.4 1162.6 260.9 1164.3 261.5 1167.1 261.9 1169.9 261.7 1171.7 261.1 1173.7 259.7 1175.0 258.2 1176.0 255.8 1176.6 252.6 1176.9 232.7 1177.4 227.5 1178.4 226.2 1184.0 225.8 1217.8 225.9 1220.2 226.5 1221.0 228.7 1220.9 244.0 1219.8 253.5 1219.0 257.6 1216.3 266.0 1213.8 272.1 1209.0 280.4 1200.7 289.4 1195.9 293.1 1191.7 295.6 1185.4 298.4 1181.2 299.8 1176.6 300.6 1167.2 301.6 1155.7 300.3 1149.4 298.8 1146.4 297.7 1140.0 294.2 1135.3 291.2 1126.7 283.6 1121.3 275.8 1116.8 266.3 1114.6 259.4 1113.7 254.9 1112.2 242.4 1112.2 134.2 1112.4 131.5 1114.5 120.5 1117.9 110.8 1120.8 104.9 1126.5 96.5 1131.0 91.8 1137.2 86.9 1141.1 84.6 1146.4 82.3 1154.4 80.0Z M659.98 1216.35C656.18 1212.95 644.00 1199.26 636.59 1190.07C634.91 1187.99 631.29 1183.60 628.59 1180.29C625.86 1176.96 623.36 1173.91 623.05 1173.46C619.05 1167.93 600.93 1147.24 599.80 1146.94C599.36 1146.82 597.38 1145.16 595.42 1143.26C593.50 1141.41 590.05 1138.19 587.80 1136.11C585.50 1134.07 582.83 1131.53 581.80 1130.50C576.65 1125.29 571.64 1119.91 568.98 1116.74C561.40 1107.85 558.15 1103.91 557.38 1102.74C556.90 1102.04 554.31 1098.48 551.61 1094.84C548.92 1091.21 546.17 1087.49 545.55 1086.58C544.94 1085.67 541.87 1081.29 538.72 1076.83C535.59 1072.38 531.91 1066.99 530.52 1064.87C529.14 1062.77 525.35 1057.03 522.11 1052.18C518.86 1047.27 514.62 1040.69 512.64 1037.48C510.70 1034.26 506.60 1027.74 503.55 1023.01C500.50 1018.23 497.09 1012.87 495.97 1011.08C494.88 1009.28 492.28 1005.80 490.18 1003.40C485.75 998.29 483.23 995.24 481.96 993.56C464.71 970.68 451.62 948.29 438.49 919.17C433.56 908.34 432.39 905.23 428.16 891.92C424.00 878.85 420.83 870.38 411.56 847.48C408.85 840.75 406.02 833.60 405.24 831.60C404.47 829.58 402.63 825.13 401.16 821.70C396.97 812.08 387.50 787.10 385.86 781.40C382.43 769.24 382.33 767.79 384.53 759.38L386.53 751.67L392.21 746.29C400.05 738.88 401.50 739.00 407.28 747.77C410.06 752.03 412.35 753.50 414.10 752.15C414.63 751.75 416.04 749.49 417.26 747.12C418.91 743.73 419.36 742.25 419.09 740.46C418.61 736.76 412.97 728.01 409.52 725.55C406.51 723.43 406.27 723.37 400.61 723.57C397.38 723.67 393.82 723.95 392.71 724.19C391.56 724.44 386.89 725.27 382.37 725.99C358.59 729.87 347.97 730.82 333.55 730.42C328.60 730.25 323.87 730.27 323.02 730.50C322.17 730.68 319.08 730.88 316.19 730.96C313.29 731.04 308.78 731.18 306.18 731.24C292.20 731.71 284.64 731.83 283.65 731.57C281.47 731.02 273.45 732.92 268.95 735.06C257.49 740.52 249.72 743.26 239.15 745.53C224.39 748.66 212.45 749.00 200.45 746.62C193.32 745.20 191.84 744.66 189.78 742.90C187.80 741.22 186.96 740.94 184.89 741.12C181.20 741.51 179.87 739.89 180.83 736.29C181.52 733.73 181.36 733.24 179.72 732.32C176.57 730.58 167.10 728.30 162.51 728.19C152.27 727.93 151.16 728.01 150.86 729.08C150.35 731.02 158.61 733.06 173.24 734.52C176.19 734.80 176.19 736.19 173.26 738.31C171.40 739.67 171.28 739.65 156.09 735.57C144.84 732.56 139.06 731.35 134.19 731.00C130.60 730.74 123.33 730.13 118.05 729.65C112.76 729.16 106.80 728.88 104.82 729.02C98.80 729.45 97.67 729.26 97.99 728.05C98.38 726.62 102.76 724.86 109.47 723.49C118.70 721.55 127.45 718.76 133.14 715.91C136.13 714.42 139.28 713.35 140.15 713.57C141.36 713.91 141.73 713.61 141.83 712.28C141.93 710.86 144.13 709.41 153.67 704.44C167.14 697.47 170.86 695.25 175.26 691.47C181.02 686.60 193.92 680.38 207.05 676.20C213.20 674.24 233.23 670.81 235.29 671.35C236.04 671.55 238.49 671.51 240.75 671.25C243.03 671.01 245.86 671.05 247.03 671.37C248.20 671.69 250.93 671.76 253.07 671.51C255.21 671.27 258.50 671.25 260.38 671.47C264.54 671.94 267.59 671.17 285.98 664.89C293.81 662.20 302.08 659.47 304.40 658.81C310.13 657.13 323.16 653.21 327.87 651.76C337.93 648.65 339.77 648.04 344.11 646.42C348.80 644.69 353.14 643.50 364.65 640.73C378.07 637.52 387.80 634.93 393.74 632.91C397.04 631.78 398.43 629.80 396.73 628.55C395.18 627.42 394.27 623.66 394.31 618.47C394.35 614.17 394.15 613.52 392.43 612.87C390.81 612.21 390.09 612.55 387.50 615.09C377.54 624.87 376.88 625.17 370.43 622.75C367.24 621.56 366.21 621.52 363.26 622.51C355.93 624.95 353.04 621.82 350.35 608.45C346.11 587.40 346.37 572.59 351.42 543.45C353.14 533.63 353.99 521.06 353.10 518.50C352.74 517.43 351.83 515.37 351.02 513.87C349.22 510.48 347.81 501.99 348.05 495.77C348.13 493.19 348.19 487.63 348.13 483.53C348.07 479.39 348.13 473.92 348.23 471.33C348.35 468.79 348.45 465.27 348.47 463.55C348.56 452.97 350.15 442.16 353.40 429.82C355.26 422.75 357.40 412.87 358.13 407.86C360.74 390.59 363.83 376.25 368.27 360.98C371.68 349.22 372.63 345.04 372.35 342.98C372.11 340.94 372.55 338.94 374.33 334.44C375.56 331.22 378.90 321.59 381.66 313.02C384.43 304.46 387.08 297.07 387.56 296.58C388.09 296.06 388.29 294.44 388.07 292.82C387.50 288.52 405.05 225.48 410.33 212.83C415.80 199.80 422.16 186.77 427.03 178.71C430.28 173.34 432.22 169.02 436.79 156.94C438.34 152.80 440.47 147.53 441.50 145.20C442.51 142.90 445.41 134.80 447.88 127.22C460.56 88.82 463.01 82.08 464.79 80.50C465.70 79.67 466.97 79.21 467.59 79.53C469.53 80.48 469.78 95.35 468.10 110.98C467.74 114.15 467.45 117.97 467.41 119.49C467.41 120.98 466.99 123.73 466.50 125.53C465.37 129.87 465.09 137.95 465.92 142.84L466.56 146.72L463.47 151.65C461.78 154.35 459.88 157.32 459.25 158.23C453.03 167.38 445.27 188.33 447.90 189.04C449.11 189.36 452.59 181.44 452.34 178.90C452.14 176.90 452.40 176.35 454.38 174.96C455.64 174.07 457.27 171.91 458.10 169.99C463.09 158.49 475.55 140.76 487.63 127.85C489.75 125.61 492.56 126.25 493.53 129.26C494.42 131.91 492.10 138.94 488.95 143.14C484.82 148.64 480.89 163.04 472.60 202.73C471.01 210.33 467.25 227.03 464.26 239.84C461.23 252.67 458.99 263.51 459.25 263.98C459.72 264.77 460.44 264.32 462.67 261.88C463.29 261.19 464.69 260.75 465.78 260.89C468.70 261.33 469.65 263.63 468.56 267.78C467.17 272.93 467.41 273.80 470.58 274.64C474.99 275.82 475.53 277.15 474.42 284.36C473.86 287.87 473.25 293.37 473.03 296.56C472.72 301.81 472.46 302.76 470.28 306.46C468.99 308.68 467.29 311.79 466.50 313.29C465.74 314.84 464.46 317.14 463.65 318.44C461.07 322.66 458.85 333.81 456.89 352.43C456.38 357.42 457.39 359.71 460.08 359.58C464.62 359.36 465.15 359.58 465.49 361.67C465.76 363.28 465.21 364.96 463.09 369.28C459.57 376.31 458.97 378.69 459.21 384.57C459.41 389.26 460.65 391.22 462.38 389.58C462.85 389.16 464.95 385.72 467.03 382.01C471.47 374.11 473.27 372.92 475.03 376.69C475.65 377.97 477.69 383.12 479.59 388.13C482.93 396.89 488.12 406.53 496.22 419.01L500.04 424.89L498.48 430.24C492.70 449.64 492.40 452.12 495.41 452.93C496.84 453.31 497.11 452.91 497.91 449.15C498.64 445.72 501.37 441.37 502.92 441.21C503.75 441.11 504.76 441.92 505.65 443.37C506.44 444.65 508.24 446.53 509.61 447.60C511.93 449.37 512.05 449.70 511.13 451.80C510.56 453.05 508.66 456.00 506.82 458.32C502.74 463.53 501.43 469.39 503.53 472.99L504.80 475.21L514.20 473.35C525.31 471.19 528.52 471.63 532.86 476.02C539.18 482.44 539.26 487.03 533.08 490.93C528.01 494.14 515.85 505.55 515.29 507.61C514.56 510.38 516.07 510.68 520.01 508.58C525.65 505.57 529.26 504.46 532.27 504.76C534.52 504.96 535.24 505.49 536.66 507.75C538.88 511.35 539.99 518.48 539.20 524.09C538.84 526.60 538.56 530.90 538.58 533.65C538.62 539.87 537.55 541.93 534.03 542.39C530.07 542.92 526.46 547.83 529.47 548.64C530.27 548.84 532.38 548.86 534.11 548.66C536.62 548.35 537.63 548.56 538.68 549.53C540.92 551.65 539.24 552.98 533.35 553.79C521.63 555.44 501.95 563.99 496.70 569.71C494.52 572.13 493.59 575.54 494.70 577.12C495.41 578.13 496.14 578.15 498.80 577.22C505.15 575.04 514.32 573.02 519.45 572.69C527.10 572.19 536.15 575.24 543.22 580.67C547.79 584.15 548.72 584.59 551.26 584.55C555.83 584.43 564.23 585.46 565.38 586.29C566.98 587.44 565.62 591.06 562.33 594.31C560.76 595.92 558.96 597.46 558.41 597.74C557.85 598.03 555.89 599.44 554.03 600.89C552.17 602.35 548.56 604.95 546.03 606.67C543.51 608.43 541.34 610.25 541.20 610.71C540.88 611.94 543.53 612.45 544.94 611.42C546.84 610.08 555.97 610.23 563.54 611.74C569.75 612.97 576.45 613.01 583.04 611.80C583.95 611.62 588.89 611.01 594.03 610.41C599.18 609.84 605.01 609.10 607.03 608.81C609.05 608.53 613.28 608.02 616.41 607.72C619.52 607.40 624.83 606.71 628.20 606.19C631.60 605.66 638.04 604.77 642.55 604.15C647.05 603.54 652.20 602.77 654.02 602.43C655.86 602.13 662.12 600.99 667.96 599.94C673.80 598.89 678.74 598.09 678.93 598.13C679.49 598.29 688.28 596.73 695.75 595.16C699.63 594.35 708.03 592.77 714.38 591.66C720.74 590.55 738.23 587.20 753.24 584.21C770.35 580.79 781.74 578.92 783.74 579.18C785.93 579.52 787.86 579.12 790.11 577.93C791.86 576.96 796.93 575.34 801.30 574.29C808.25 572.63 822.10 568.82 825.98 567.48C826.69 567.22 829.15 566.72 831.48 566.27C833.78 565.87 836.04 565.08 836.45 564.51C836.87 563.93 839.58 562.96 842.47 562.35C845.35 561.77 851.64 560.25 856.44 558.98C861.25 557.75 865.31 556.76 865.49 556.82C866.02 556.96 889.13 550.33 891.01 549.51C892.00 549.06 894.48 548.33 896.56 547.87C898.64 547.40 901.17 546.64 902.16 546.17C903.15 545.71 904.52 545.20 905.19 545.10C905.85 545.00 909.02 544.11 912.20 543.14C915.39 542.15 920.40 540.62 923.37 539.69C935.47 535.97 957.59 528.30 961.77 526.36C967.34 523.79 988.77 516.52 1002.47 512.56C1015.34 508.84 1019.84 507.19 1027.78 503.31C1031.28 501.59 1035.23 500.04 1036.59 499.85C1037.94 499.67 1039.90 498.92 1040.99 498.20C1042.06 497.49 1045.98 495.77 1049.74 494.38C1062.99 489.49 1078.95 483.09 1084.26 480.52C1087.21 479.07 1093.13 476.16 1097.39 474.04C1130.64 457.47 1157.10 448.75 1173.34 449.05C1180.13 449.17 1181.30 449.43 1187.56 451.88C1202.33 457.66 1202.19 457.57 1202.09 459.15C1201.90 461.31 1200.09 461.49 1195.68 459.80C1192.23 458.46 1190.86 458.38 1185.40 459.09C1181.93 459.55 1176.82 460.81 1174.09 461.86C1171.30 462.95 1165.83 464.67 1161.85 465.70C1146.09 469.84 1134.90 474.10 1117.47 482.52C1112.07 485.13 1106.26 487.94 1104.50 488.78C1102.76 489.61 1100.36 490.38 1099.13 490.46C1097.91 490.56 1096.82 490.93 1096.72 491.33C1096.06 493.81 1076.91 502.80 1064.91 506.24C1056.93 508.50 1050.95 511.63 1050.83 513.57C1050.53 517.39 1064.73 517.06 1077.31 512.96C1079.29 512.32 1082.76 511.25 1085.01 510.60C1087.29 509.93 1093.09 507.87 1097.93 505.97C1107.99 502.08 1113.09 500.20 1121.08 497.49C1124.22 496.46 1130.42 494.12 1134.90 492.32C1139.39 490.52 1145.04 488.38 1147.49 487.49C1152.96 485.57 1163.59 480.70 1168.01 478.12C1172.59 475.41 1176.05 472.54 1178.82 469.13C1182.69 464.30 1185.46 464.06 1186.21 468.44C1187.14 474.02 1183.26 479.67 1174.72 485.27C1172.07 486.99 1166.43 491.45 1162.19 495.21C1155.83 500.78 1153.20 502.50 1147.59 504.86C1136.92 509.31 1136.56 509.43 1132.94 510.22C1131.08 510.62 1128.92 511.39 1128.17 511.93C1127.39 512.48 1122.48 514.38 1117.25 516.11C1112.01 517.87 1104.98 520.30 1101.63 521.49C1098.28 522.68 1093.98 524.17 1092.08 524.84C1090.18 525.49 1087.09 526.58 1085.21 527.29C1080.93 528.84 1062.99 534.15 1051.92 537.10C1047.35 538.33 1040.59 540.46 1036.91 541.79C1033.21 543.14 1028.67 544.80 1026.77 545.51C1023.32 546.74 1007.54 553.08 993.62 558.78C989.50 560.45 983.44 562.74 980.17 563.85C966.11 568.63 963.71 569.42 954.56 572.37C952.90 572.92 941.24 576.75 928.66 580.96C916.05 585.12 903.99 589.00 901.83 589.56C899.65 590.17 895.37 591.48 892.26 592.49C885.11 594.85 871.86 598.93 870.68 599.14C870.18 599.22 868.62 599.66 867.21 600.11C865.80 600.57 862.50 601.60 859.92 602.41C857.31 603.18 853.82 604.29 852.18 604.81C850.53 605.32 846.75 606.49 843.78 607.38C837.11 609.36 833.25 610.53 823.86 613.44C813.48 616.65 814.10 616.47 803.88 619.09C798.75 620.41 793.42 621.82 792.01 622.20C790.61 622.61 786.83 623.54 783.60 624.27C780.37 624.97 777.14 625.82 776.41 626.10C775.68 626.43 774.31 626.85 773.40 627.05C763.56 629.34 750.21 632.69 748.45 633.34C747.20 633.76 743.57 634.71 740.39 635.38C737.20 636.10 734.01 636.89 733.32 637.13C732.60 637.35 726.52 638.91 719.77 640.59C713.04 642.22 706.98 643.80 706.24 644.04C705.55 644.28 702.12 645.15 698.64 645.96C695.19 646.81 688.34 648.55 683.47 649.82C678.54 651.13 671.37 652.75 667.51 653.49C663.63 654.22 659.27 655.25 657.82 655.78C653.35 657.45 645.11 659.72 641.74 660.16C639.96 660.38 638.26 660.79 637.96 661.03C636.24 662.42 619.80 666.16 614.55 666.32C612.08 666.38 608.04 667.51 598.71 670.62C585.06 675.23 563.77 688.84 558.74 696.16C557.16 698.48 557.02 698.94 557.83 700.48C558.55 701.91 559.38 702.30 563.28 702.92C565.79 703.33 569.06 703.61 570.51 703.55C573.93 703.45 574.84 704.80 572.45 706.40C571.52 707.09 566.55 708.68 561.44 709.99C549.85 713.02 543.77 715.69 543.12 718.07C541.91 722.62 550.60 724.72 563.97 723.12C569.81 722.42 572.63 723.53 577.81 728.50C582.25 732.76 582.43 732.82 585.24 732.46C586.83 732.21 589.18 732.34 590.39 732.66C593.88 733.59 593.78 736.19 590.03 744.48C588.33 748.21 587.04 751.85 587.12 752.60C587.18 753.34 586.33 754.94 585.18 756.17L583.12 758.39L584.49 760.29C585.48 761.69 586.51 762.25 588.07 762.33C591.78 762.49 593.06 763.93 593.82 768.74C594.61 773.87 594.21 775.99 591.95 778.47C591.04 779.48 590.01 780.77 589.66 781.38C589.28 781.95 587.93 782.39 586.59 782.31C584.19 782.15 582.19 783.91 581.38 786.92C580.71 789.38 584.61 790.59 589.68 789.56C595.96 788.25 598.95 789.97 600.19 795.62C601.24 800.51 597.72 812.21 594.45 814.77C592.87 815.96 592.07 816.02 588.87 815.03C586.85 814.41 585.08 814.21 584.98 814.61C584.73 815.52 587.97 819.40 589.24 819.74C591.10 820.23 592.93 823.15 592.47 824.85C591.66 827.88 585.91 831.11 569.20 837.92C567.97 838.43 562.11 840.12 556.17 841.66C550.27 843.19 544.94 844.97 544.37 845.56C542.94 847.11 544.52 850.46 547.00 851.13C548.03 851.41 551.26 850.91 554.15 850.02C571.64 844.55 577.93 843.27 586.11 843.62C591.60 843.80 591.60 843.80 592.53 845.84C593.02 846.99 593.10 848.36 592.65 848.93C592.25 849.50 590.77 852.53 589.38 855.60C587.97 858.71 585.86 862.73 584.73 864.60C583.56 866.46 581.12 870.58 579.30 873.78C572.35 885.92 570.43 888.76 568.92 889.09C567.14 889.51 557.48 886.95 545.06 882.76C535.65 879.57 532.98 879.33 532.38 881.63C531.69 884.20 535.24 886.64 540.96 887.57C554.11 889.65 554.49 889.75 557.67 891.90C559.42 893.07 562.17 894.38 563.83 894.82C567.64 895.83 571.16 898.94 571.68 901.73C571.91 902.94 571.70 906.10 571.22 908.70C570.76 911.37 570.35 914.94 570.31 916.74C570.25 920.64 568.57 922.84 566.17 922.20C565.24 921.95 563.20 920.20 561.58 918.22C559.99 916.30 558.13 914.56 557.46 914.38C554.05 913.47 552.25 918.16 554.03 923.29C556.17 929.49 562.37 940.88 566.53 946.33C572.96 954.74 576.25 961.77 575.34 965.20C574.41 968.66 571.56 968.55 565.40 964.84C562.19 962.90 561.52 962.68 560.35 963.32C558.43 964.43 558.92 966.29 562.31 970.78C563.93 972.94 565.56 975.06 565.87 975.50C566.21 975.91 567.79 977.66 569.40 979.38C571.00 981.12 577.30 988.05 583.36 994.83C589.42 1001.60 596.17 1009.10 598.33 1011.50C615.66 1030.69 617.30 1032.69 621.90 1040.45C627.44 1049.82 624.77 1051.66 616.35 1044.26C612.51 1040.83 610.15 1039.66 610.25 1041.11C610.35 1043.13 633.23 1095.67 637.05 1102.70C637.44 1103.41 638.51 1105.59 639.42 1107.55C643.96 1117.27 649.86 1127.71 652.44 1130.74C655.80 1134.60 657.88 1139.32 656.87 1140.70C655.80 1142.17 652.42 1142.25 649.64 1140.90C643.43 1137.93 632.75 1125.63 623.34 1110.58C620.61 1106.26 616.83 1100.54 614.95 1097.89C613.05 1095.29 611.26 1092.54 610.91 1091.81C610.59 1091.11 609.74 1090.56 609.01 1090.66C607.18 1090.84 610.41 1098.12 618.33 1111.67C621.74 1117.51 625.23 1124.28 626.04 1126.74C628.08 1132.80 633.90 1144.48 642.04 1158.86C645.82 1165.52 651.78 1176.76 655.31 1183.83C658.81 1190.90 661.94 1197.20 662.26 1197.80C664.06 1201.24 667.05 1210.09 667.70 1213.84C668.28 1217.16 668.20 1218.45 667.35 1219.22C665.65 1220.79 664.42 1220.35 659.98 1216.35ZM604.73 1052.28C605.16 1050.71 599.50 1041.38 597.86 1040.93C595.48 1040.28 595.42 1042.77 597.70 1047.60C599.56 1051.48 600.53 1052.67 602.23 1053.11C603.82 1053.54 604.45 1053.35 604.73 1052.28ZM157.06 711.69C162.61 710.50 169.72 708.42 172.90 707.02C176.11 705.65 180.96 703.79 183.68 702.92C191.00 700.52 190.89 698.28 183.44 698.04C180.79 697.93 177.91 698.56 175.08 699.89C172.69 700.96 166.61 703.47 161.56 705.39C156.47 707.33 150.86 709.49 149.04 710.18C145.81 711.43 144.35 713.15 146.13 713.61C146.62 713.75 151.54 712.90 157.06 711.69ZM565.16 790.13C567.73 789.16 566.27 786.55 563.10 786.27C555.48 785.60 554.21 785.80 554.80 787.68C555.18 789.00 563.22 790.90 565.16 790.13ZM465.61 719.08C466.97 718.56 468.10 717.45 468.38 716.42C468.83 714.78 468.64 714.62 465.13 713.91C461.49 713.17 455.13 714.52 454.71 716.13C454.08 718.46 461.90 720.58 465.61 719.08ZM743.49 603.62C748.35 602.59 748.11 601.38 742.64 599.62C737.02 597.82 735.61 598.35 737.32 601.58C738.80 604.37 739.26 604.53 743.49 603.62ZM476.60 499.17C479.11 489.65 477.31 488.74 473.80 497.79C471.76 503.07 471.78 505.11 473.94 504.90C474.81 504.80 475.47 503.35 476.60 499.17ZM493.45 474.54C494.74 472.66 494.86 472.10 494.14 470.89C493.47 469.67 493.07 469.53 491.94 470.06C491.17 470.40 490.40 471.27 490.20 472.00C490.02 472.70 488.97 474.54 487.92 476.08C486.86 477.65 486.10 479.29 486.24 479.73C486.58 480.87 491.51 477.33 493.45 474.54ZM1004.71 534.90C1006.09 533.51 1006.25 532.98 1005.66 531.99C1005.10 531.00 1004.45 531.14 1002.13 532.64C1000.59 533.67 999.42 534.88 999.56 535.32C1000.03 536.90 1003.04 536.64 1004.71 534.90Z"/>
</svg>
