<svg xmlns="http://www.w3.org/2000/svg" data-dip="0.0167" viewBox="0 0 1228.63 300" overflow="visible"><path fill="currentColor" d="M1.93 0L114.57 0C177.02 0 208.69 35.69 208.69 84.76C208.69 136.06 172.56 168.4 114.57 168.4L67.5 168.4C65.42 168.4 64.38 169.44 64.38 171.52L64.38 247.58C64.38 272.12 71.07 287.73 84.01 295.32C84.46 298.44 83.86 300 82.23 300L1.93 300C0.29 300 -0.3 298.44 0.14 295.32C13.08 287.73 19.77 272.12 19.77 247.58L19.77 57.99C19.77 26.77 10.85 8.48 0.14 3.57C-0.3 1.19 0.29 0 1.93 0ZM64.38 21.86L64.38 147.66L103.41 147.66C134.64 147.66 159.62 120.45 159.62 82.53C159.62 46.84 139.1 22.3 103.86 22.08L64.38 21.86ZM268.61 0L348.91 0L348.91 0C350.55 0 351.14 1.19 350.7 3.57C339.99 8.48 331.07 26.77 331.07 57.99L331.07 247.58C331.07 272.12 337.76 287.73 350.7 295.32C351.14 298.44 350.55 300 348.91 300L268.61 300C266.98 300 266.38 298.44 266.83 295.32C279.77 287.73 286.46 272.12 286.46 247.58L286.46 57.99C286.46 26.77 277.54 8.48 266.83 3.57C266.38 1.19 266.98 0 268.61 0ZM664.22 68.32C661.38 67.99 661.65 70.85 658.06 67.59C655.1 64.92 653.17 61.17 650.69 58.08C644.42 50.32 637.22 42.61 629.09 36.77C624.81 33.7 620.37 30.55 615.71 28.09C609.32 24.72 594.39 19.6 587.27 18.22C579.3 16.68 566.86 16.71 558.83 17.99C554.8 18.63 551.03 20.18 547.12 21.28C529.41 26.28 516.73 33.69 503.73 46.91C496.06 54.71 490.98 62.65 485.43 71.93C480.28 80.56 472.8 100.49 471.07 110.41C470.1 115.92 469.84 121.58 469.31 127.14C468.78 132.69 468.15 138.29 468.02 143.87C467.85 151.16 469.9 175.43 471.5 182.34C472.16 185.23 473.41 187.91 474.34 190.71C476.76 198.03 479.26 205.57 482.8 212.45C493.99 234.23 512.83 252.43 535.41 261.99C539.75 263.83 544.26 265.87 548.79 267.16C552.08 268.09 555.48 268.55 558.83 269.17C570.54 271.34 580.44 271.67 592.29 270.53C599.04 269.88 605.76 269.28 612.36 267.67C615.84 266.82 619.04 265.37 622.4 264.19C638.69 258.46 650.48 252.18 664.22 241.61C668.67 238.18 673.77 234.18 679.14 238.28C681.47 240.07 683.43 242.84 682.65 245.91C680.81 253.1 657.51 273.25 650.84 278.13C642.2 284.45 633.66 289.22 624.07 293.89C621.32 295.24 618.64 296.81 615.71 297.76C605.9 300.94 594.17 302.79 583.92 304.06C563.77 306.56 536.43 303.47 517.01 297.51C504.89 293.78 485.42 283.37 475.19 275.88C458 263.3 440.41 242.55 431.57 223.05C429.34 218.14 427.8 213.03 425.91 207.99C424.86 205.17 423.38 202.53 422.55 199.63C421.77 196.9 421.46 194.05 420.91 191.26C418.41 178.49 417.75 165.78 417.75 152.79C417.75 138.37 418.36 128.57 420.79 114.31C421.36 110.98 421.62 107.52 422.58 104.28C423.43 101.37 424.99 98.74 426.04 95.91C427.92 90.88 429.35 85.75 431.62 80.86C443.37 55.52 463.12 33.11 486.9 18.47C490.68 16.15 494.69 14.29 498.61 12.23C501.38 10.78 504.09 9.27 506.97 8.05C511.35 6.2 515.86 5.05 520.36 3.57C523.18 2.64 525.86 1.31 528.72 0.49C533.05 -0.76 542.78 -3.04 547.12 -3.59C557.57 -4.91 568.4 -4.7 578.91 -4.49C586.11 -4.35 593.52 -4.42 600.65 -3.34C604.6 -2.74 608.44 -1.65 612.36 -0.92C615.15 -0.41 617.98 -0.15 620.73 0.57C624.15 1.48 627.34 3.07 630.76 3.99C641.38 6.82 649.35 8.66 659.09 14.39C660.88 15.44 662.48 16.85 664.22 18ZM738.28 0L818.58 0L818.58 0C820.21 0 820.81 1.19 820.36 3.57C809.66 8.48 800.73 26.77 800.73 57.99L800.73 166.84C800.73 162.68 802.04 158.96 804.66 155.69L897.09 40.15C910.6 23.27 891.74 8.48 902.44 3.57C902.89 1.19 902.29 0 900.66 0L966.68 0L966.68 0C968.32 0 968.91 1.19 968.47 3.57C957.76 8.48 938.86 25.85 923.86 44.61L859.47 125.1C857.09 129.26 857 132.53 859.22 134.91L931.15 250.93C943.25 270.45 967.94 287.73 980.31 295.32C980.76 298.44 980.16 300 978.53 300L893.32 300L893.32 300C891.69 300 891.09 298.44 891.54 295.32C904.49 287.73 892.01 269.11 879.36 248.7L830.82 170.41C828.61 165.65 826.43 165.2 824.29 169.07L803.95 194.5C801.8 197.17 800.73 200.59 800.73 204.76L800.73 247.58C800.73 272.12 807.42 287.73 820.36 295.32C820.81 298.44 820.21 300 818.58 300L738.28 300C736.64 300 736.05 298.44 736.5 295.32C749.43 287.73 756.12 272.12 756.12 247.58L756.12 57.99C756.12 26.77 747.2 8.48 736.5 3.57C736.05 1.19 736.64 0 738.28 0ZM1209.43 16.51L1209.43 64.68C1206.74 64.2 1206.66 66.08 1203.86 63.68C1200.75 61.02 1198.67 57.19 1196.05 54.09C1192.13 49.47 1187.93 44.97 1183.45 40.9C1173.29 31.68 1161.43 25.23 1148.32 21.36C1144.42 20.21 1140.62 18.67 1136.61 17.95C1128.83 16.55 1115.93 16.83 1108.17 18.41C1103.54 19.35 1094.12 22.5 1089.77 24.45C1075.78 30.74 1063.41 43.19 1061.88 59.11C1060.85 69.93 1062.78 80.33 1069.43 89.19C1080.59 104.06 1103.77 112.9 1120.44 120.07C1123.31 121.31 1125.97 122.96 1128.8 124.28C1133.73 126.59 1138.91 128.31 1143.86 130.55C1146.68 131.82 1149.4 133.33 1152.22 134.62C1156.07 136.39 1160.12 137.73 1163.93 139.56C1167.91 141.47 1171.73 143.74 1175.64 145.78C1195.49 156.14 1212.79 168.24 1222.64 189.03C1223.94 191.78 1225.46 194.48 1226.35 197.4C1228.11 203.11 1228.32 209.85 1228.55 215.8C1228.83 223.33 1228.49 233.64 1226.54 240.89C1224.62 248 1217.52 261.74 1212.95 267.66C1204.6 278.47 1194.92 285.55 1182.89 291.81C1179.08 293.79 1175.21 295.92 1171.18 297.44C1157.62 302.53 1135.53 305.11 1121 305.01C1112.09 304.95 1103.1 303.69 1094.23 302.94C1087.92 302.42 1082.02 300.77 1075.83 299.62C1071.94 298.89 1067.9 298.57 1064.12 297.36C1061.25 296.45 1058.56 295.05 1055.75 293.96C1050.25 291.82 1044.43 290.27 1039.03 287.94C1034.96 286.19 1031.22 283.75 1027.32 281.68C1025.13 280.52 1022.8 279.56 1020.77 278.13C1019.13 276.97 1018.54 275.61 1017.26 274.21C1016.96 273.87 1016.46 273.78 1016.14 273.46L1016.14 225.06C1019.74 224.35 1019.28 221.55 1023.46 226.53C1026.15 229.73 1028.42 233.25 1031.13 236.43C1043.91 251.46 1057.55 262.94 1075.27 271.65C1081.8 274.85 1088.21 277.76 1095.35 279.42C1101.95 280.95 1108.71 280.99 1115.42 281.65C1119.93 282.1 1124.3 281.84 1128.8 281.57C1140.18 280.88 1150.77 279.35 1160.59 273.15C1173.7 264.87 1180.93 256.23 1184.1 240.89C1184.67 238.13 1185.29 235.36 1185.29 232.53C1185.3 229.09 1184.45 225.76 1183.45 222.49C1178.96 207.8 1167.49 198.11 1154.45 190.71C1151.21 188.87 1147.74 187.52 1144.42 185.86C1140.48 183.9 1136.71 181.65 1132.71 179.8C1128.84 178.03 1124.84 176.59 1121 174.78C1117.63 173.19 1114.36 171.37 1110.96 169.87C1106.55 167.92 1101.97 166.38 1097.58 164.4C1094.71 163.12 1092.07 161.41 1089.21 160.13C1085.88 158.65 1082.45 157.42 1079.17 155.81C1059.84 146.31 1036.87 131.98 1027.01 112.08C1020.5 98.94 1016.46 83.28 1018.81 68.59C1019.36 65.16 1020.58 61.88 1021.51 58.55C1023.13 52.81 1025.22 47.09 1028.05 41.82C1035.14 28.62 1049.33 16.09 1062.45 9.06C1066.76 6.75 1071.31 5.21 1075.83 3.39C1082.34 0.78 1089.01 -1.44 1095.9 -2.86C1103.61 -4.45 1111.5 -4.36 1119.32 -4.48C1126.98 -4.6 1134.54 -4.33 1142.19 -3.99C1145.53 -3.85 1148.89 -3.98 1152.22 -3.54C1155.65 -3.09 1158.91 -2 1162.26 -1.23C1165.03 -0.59 1167.86 -0.34 1170.62 0.27C1174.1 1.03 1177.27 2.65 1180.66 3.68C1186.34 5.42 1191.99 6.75 1197.39 9.32C1201.62 11.34 1205.51 14.02 1209.43 16.51Z"/></svg>
