<svg xmlns="http://www.w3.org/2000/svg" data-dip="0.0164" viewBox="0 0 709.27 300" overflow="visible"><path fill="currentColor" d="M246.47 68.32C243.63 67.99 243.9 70.85 240.3 67.59C237.35 64.92 235.42 61.17 232.93 58.08C226.66 50.32 219.47 42.61 211.34 36.77C207.06 33.7 202.62 30.55 197.96 28.09C191.57 24.72 176.64 19.6 169.52 18.22C161.54 16.68 149.11 16.71 141.08 17.99C137.05 18.63 133.28 20.18 129.37 21.28C111.65 26.28 98.97 33.69 85.98 46.91C78.31 54.71 73.23 62.65 67.68 71.93C62.53 80.56 55.04 100.49 53.31 110.41C52.35 115.92 52.09 121.58 51.56 127.14C51.03 132.69 50.4 138.29 50.27 143.87C50.1 151.16 52.14 175.43 53.74 182.34C54.41 185.23 55.66 187.91 56.58 190.71C59 198.03 61.51 205.57 65.04 212.45C76.24 234.23 95.08 252.43 117.66 261.99C121.99 263.83 126.51 265.87 131.04 267.16C134.33 268.09 137.73 268.55 141.08 269.17C152.78 271.34 162.69 271.67 174.54 270.53C181.28 269.88 188.01 269.28 194.61 267.67C198.09 266.82 201.28 265.37 204.65 264.19C220.94 258.46 232.73 252.18 246.47 241.61C250.92 238.18 256.02 234.18 261.38 238.28C263.72 240.07 265.68 242.84 264.89 245.91C263.06 253.1 239.75 273.25 233.09 278.13C224.44 284.45 215.91 289.22 206.32 293.89C203.56 295.24 200.88 296.81 197.96 297.76C188.15 300.94 176.41 302.79 166.17 304.06C146.01 306.56 118.67 303.47 99.26 297.51C87.14 293.78 67.67 283.37 57.43 275.88C40.25 263.3 22.65 242.55 13.82 223.05C11.59 218.14 10.05 213.03 8.16 207.99C7.11 205.17 5.63 202.53 4.8 199.63C4.02 196.9 3.7 194.05 3.16 191.26C0.66 178.49 0 165.78 0 152.79C0 138.37 0.61 128.57 3.04 114.31C3.6 110.98 3.86 107.52 4.82 104.28C5.68 101.37 7.23 98.74 8.29 95.91C10.16 90.88 11.6 85.75 13.87 80.86C25.61 55.52 45.36 33.11 69.14 18.47C72.92 16.15 76.93 14.29 80.86 12.23C83.63 10.78 86.33 9.27 89.22 8.05C93.6 6.2 98.1 5.05 102.6 3.57C105.43 2.64 108.1 1.31 110.97 0.49C115.29 -0.76 125.03 -3.04 129.37 -3.59C139.81 -4.91 150.65 -4.7 161.15 -4.49C168.35 -4.35 175.76 -4.42 182.9 -3.34C186.85 -2.74 190.69 -1.65 194.61 -0.92C197.39 -0.41 200.23 -0.15 202.97 0.57C206.4 1.48 209.59 3.07 213.01 3.99C223.63 6.82 231.6 8.66 241.34 14.39C243.13 15.44 244.72 16.85 246.47 18ZM321.64 0L436.07 0C496.73 0 534.21 31.23 534.21 78.96C534.21 120.45 496.73 147.21 454.8 157.47L548.48 270.33C556.96 281.04 565.43 289.96 570.79 295.32C572.27 298.44 571.68 300 569 300L519.93 300C517.55 300 515.62 299.18 514.13 297.55C509.23 290.41 504.76 285.95 501.2 282.38L402.16 161.49C398.59 157.62 394.73 155.84 390.56 156.13C387 156.43 385.21 158.22 385.21 161.49L385.21 247.58C385.21 272.12 391.9 287.73 404.84 295.32C405.28 298.44 404.69 300 403.05 300L321.64 300C320.01 300 319.41 298.44 319.86 295.32C332.79 287.73 339.49 272.12 339.49 247.58L339.49 57.99C339.49 26.77 330.56 8.48 319.86 3.57C319.41 1.19 320.01 0 321.64 0ZM385.21 21.86L385.21 137.84L429.82 137.62C461.05 137.4 486.03 115.99 486.03 79.41C486.03 46.84 465.51 22.3 431.6 22.08L385.21 21.86ZM627.04 0L707.34 0L707.34 0C708.98 0 709.57 1.19 709.12 3.57C698.42 8.48 689.5 26.77 689.5 57.99L689.5 247.58C689.5 272.12 696.19 287.73 709.12 295.32C709.57 298.44 708.98 300 707.34 300L627.04 300C625.41 300 624.81 298.44 625.26 295.32C638.2 287.73 644.89 272.12 644.89 247.58L644.89 57.99C644.89 26.77 635.96 8.48 625.26 3.57C624.81 1.19 625.41 0 627.04 0Z"/></svg>
